<svg xmlns="http://www.w3.org/2000/svg" viewBox="0 0 128 128"><defs><style>.Graphic-Style-6{fill:#d6e1ea;}.Graphic-Style-5{fill:#fff;}.Graphic-Style-3{fill:#a6caff;}.cls-1{fill:none;stroke:#2a457f;stroke-linecap:round;stroke-linejoin:round;stroke-width:4px;}</style></defs><title>computer</title><g id="circles"><circle class="Graphic-Style-6" cx="64" cy="64" r="54"/></g><g id="icons"><path class="Graphic-Style-5" d="M24,29h80a4,4,0,0,1,4,4V91a0,0,0,0,1,0,0H20a0,0,0,0,1,0,0V33A4,4,0,0,1,24,29Z"/><path class="Graphic-Style-3" d="M12,91H116a2,2,0,0,1,2,2v0a6,6,0,0,1-6,6H16a6,6,0,0,1-6-6v0a2,2,0,0,1,2-2Z"/><polygon class="Graphic-Style-3" points="51 69 41 69 41 41 77 41 77 51 51 51 51 69"/><path class="cls-1" d="M93.5,29H104a4,4,0,0,1,4,4V65"/><path class="cls-1" d="M29.5,91H20V33a4,4,0,0,1,4-4H65.5"/><line class="cls-1" x1="83.5" y1="29" x2="73.5" y2="29"/><polyline class="cls-1" points="108 75 108 91 39.5 91"/><path class="cls-1" d="M29.5,91H12a2.015,2.015,0,0,0-2,2,6,6,0,0,0,6,6H70.5"/><path class="cls-1" d="M80.5,99H112a6.009,6.009,0,0,0,6-6,2.006,2.006,0,0,0-2-2H39.5"/><polyline class="cls-1" points="51 69 41 69 41 41 77 41 77 51"/><polyline class="cls-1" points="51 65 51 69 51 79 64 79"/><polyline class="cls-1" points="51 55 51 51 77 51 87 51 87 79 74 79"/></g></svg>