<?xml version="1.0" ?><!DOCTYPE svg  PUBLIC '-//W3C//DTD SVG 1.1//EN'  'http://www.w3.org/Graphics/SVG/1.1/DTD/svg11.dtd'><svg enable-background="new 0 0 64 64" height="64px" id="icons" version="1.1" viewBox="0 0 64 64" width="64px" xml:space="preserve" xmlns="http://www.w3.org/2000/svg" xmlns:xlink="http://www.w3.org/1999/xlink"><g><g><g><path d="M49,26.051v-0.05H32H16c-8.29,0-15,6.72-15,15c0,8.289,6.71,15,15,15c6.53,0,12.07-4.17,14.13-10h3.74     c2.06,5.83,7.6,10,14.13,10c8.28,0,15-6.711,15-15C63,33.061,56.82,26.572,49,26.051z" fill="#FFFFFF"/></g></g><g><g><path d="M43.03,39.002c1.1,0,2,0.9,2,2c0,1.109-0.9,2-2,2c-1.101,0-2-0.891-2-2     C41.03,39.902,41.93,39.002,43.03,39.002z" fill="#94C1FF"/></g></g><g><g><path d="M48.03,34.002c1.1,0,2,0.9,2,2c0,1.109-0.9,2-2,2c-1.101,0-2-0.891-2-2     C46.03,34.902,46.93,34.002,48.03,34.002z" fill="#94C1FF"/></g></g><g><g><path d="M48.03,44.002c1.1,0,2,0.9,2,2c0,1.109-0.9,2-2,2c-1.101,0-2-0.891-2-2     C46.03,44.902,46.93,44.002,48.03,44.002z" fill="#94C1FF"/></g></g><g><g><path d="M53.03,39.002c1.1,0,2,0.9,2,2c0,1.109-0.9,2-2,2c-1.101,0-2-0.891-2-2     C51.03,39.902,51.93,39.002,53.03,39.002z" fill="#94C1FF"/></g></g><g><g><path d="M48,56.002c8.28,0,15-6.711,15-15v5c0,8.289-6.72,15-15,15c-6.53,0-12.07-4.17-14.13-10v-5     C35.93,51.832,41.47,56.002,48,56.002z" fill="#D7E9FF"/></g></g><g><g><rect fill="#D7E9FF" height="5" width="3.74" x="30.13" y="46.002"/></g></g><g><g><path d="M30.13,51.002c-2.06,5.83-7.6,10-14.13,10c-8.29,0-15-6.711-15-15v-5c0,8.289,6.71,15,15,15     c6.53,0,12.07-4.17,14.13-10V51.002z" fill="#D7E9FF"/></g></g><g><g><path d="M21,39.002c1.101,0,2,0.9,2,2c0,1.109-0.899,2-2,2h-3v3c0,1.109-0.899,2-2,2c-1.109,0-2-0.891-2-2v-3h-3     c-1.109,0-2-0.891-2-2c0-1.1,0.891-2,2-2h3v-3c0-1.1,0.891-2,2-2c1.101,0,2,0.9,2,2v3H21z" fill="#94C1FF"/></g></g></g><g><g><g><path d="M48,57.002c-6.519,0-12.385-3.989-14.818-10h-2.363c-2.434,6.011-8.3,10-14.818,10     c-8.822,0-16-7.178-16-16s7.178-16,16-16h33c0.137,0,0.268,0.027,0.387,0.077C57.606,25.788,64,32.721,64,41.002     C64,49.824,56.822,57.002,48,57.002z M30.128,45.002h3.744c0.424,0,0.802,0.267,0.942,0.666     c1.977,5.583,7.274,9.334,13.186,9.334c7.72,0,14-6.28,14-14c0-7.339-5.739-13.467-13.066-13.951     c-0.086-0.006-0.17-0.022-0.249-0.049H16c-7.72,0-14,6.28-14,14s6.28,14,14,14c5.911,0,11.209-3.751,13.186-9.334     C29.326,45.269,29.704,45.002,30.128,45.002z" fill="#116FFF"/></g></g><g><g><path d="M48,62.001c-6.519,0-12.385-3.989-14.818-10h-2.363c-2.434,6.011-8.3,10-14.818,10     c-8.822,0-16-7.178-16-16c0-0.553,0.447-1,1-1s1,0.447,1,1c0,7.72,6.28,14,14,14c5.911,0,11.209-3.751,13.186-9.334     c0.141-0.399,0.519-0.666,0.942-0.666h3.744c0.424,0,0.802,0.267,0.942,0.666c1.977,5.583,7.274,9.334,13.186,9.334     c7.72,0,14-6.28,14-14c0-0.553,0.447-1,1-1s1,0.447,1,1C64,54.823,56.822,62.001,48,62.001z" fill="#116FFF"/></g></g><g><g><path d="M1,47.001c-0.553,0-1-0.447-1-1v-4.999c0-0.553,0.447-1,1-1s1,0.447,1,1v4.999     C2,46.554,1.553,47.001,1,47.001z" fill="#116FFF"/></g></g><g><g><path d="M63,47.001c-0.553,0-1-0.447-1-1v-4.999c0-0.553,0.447-1,1-1s1,0.447,1,1v4.999     C64,46.554,63.553,47.001,63,47.001z" fill="#116FFF"/></g></g><g><g><path d="M16,49.003c-1.654,0-3-1.346-3-3v-2.001h-2.001c-1.654,0-3-1.346-3-3s1.346-3,3-3H13v-2     c0-1.654,1.346-3,3-3s3,1.346,3,3v2h2.001c1.654,0,3,1.346,3,3s-1.346,3-3,3H19v2.001C19,47.657,17.654,49.003,16,49.003z      M10.999,40.002c-0.552,0-1,0.448-1,1s0.448,1,1,1H14c0.553,0,1,0.447,1,1v3.001c0,0.552,0.448,1,1,1s1-0.448,1-1v-3.001     c0-0.553,0.447-1,1-1h3.001c0.552,0,1-0.448,1-1s-0.448-1-1-1H18c-0.553,0-1-0.447-1-1v-3c0-0.552-0.448-1-1-1s-1,0.448-1,1v3     c0,0.553-0.447,1-1,1H10.999z" fill="#116FFF"/></g></g><g><g><path d="M43.031,44.002c-1.654,0-3-1.346-3-3s1.346-3,3-3s3,1.346,3,3S44.686,44.002,43.031,44.002z      M43.031,40.002c-0.552,0-1,0.448-1,1s0.448,1,1,1s1-0.448,1-1S43.583,40.002,43.031,40.002z" fill="#116FFF"/></g></g><g><g><path d="M48.031,39.002c-1.654,0-3-1.346-3-3s1.346-3,3-3s3,1.346,3,3S49.686,39.002,48.031,39.002z      M48.031,35.002c-0.552,0-1,0.448-1,1s0.448,1,1,1s1-0.448,1-1S48.583,35.002,48.031,35.002z" fill="#116FFF"/></g></g><g><g><path d="M48.031,49.002c-1.654,0-3-1.346-3-3s1.346-3,3-3s3,1.346,3,3S49.686,49.002,48.031,49.002z      M48.031,45.002c-0.552,0-1,0.448-1,1s0.448,1,1,1s1-0.448,1-1S48.583,45.002,48.031,45.002z" fill="#116FFF"/></g></g><g><g><path d="M53.031,44.002c-1.654,0-3-1.346-3-3s1.346-3,3-3s3,1.346,3,3S54.686,44.002,53.031,44.002z      M53.031,40.002c-0.552,0-1,0.448-1,1s0.448,1,1,1s1-0.448,1-1S53.583,40.002,53.031,40.002z" fill="#116FFF"/></g></g><g><g><path d="M34,36h-4c-0.553,0-1-0.447-1-1s0.447-1,1-1h4c0.553,0,1,0.447,1,1S34.553,36,34,36z" fill="#116FFF"/></g></g><g><g><path d="     M30,26.002" fill="none" stroke="#116FFF" stroke-linecap="round" stroke-linejoin="round" stroke-miterlimit="10" stroke-width="2"/></g></g><g><g><g><path d="M31.998,27.002c-0.553,0-1-0.448-1-1v-2.998c0-0.552,0.447-1,1-1s1,0.448,1,1v2.998      C32.998,26.554,32.551,27.002,31.998,27.002z" fill="#116FFF"/></g></g><g><g><path d="M31.998,24.004c-0.553,0-1-0.448-1-1c0-2.758,2.244-5.002,5.002-5.002c0.553,0,1,0.448,1,1s-0.447,1-1,1      c-1.655,0-3.002,1.347-3.002,3.002C32.998,23.556,32.551,24.004,31.998,24.004z" fill="#116FFF"/></g></g><g><g><g><path d="M48.007,20.002c-0.553,0-1-0.448-1-1s0.447-1,1-1c1.654,0,3-1.346,3-3s-1.346-3-3-3       c-0.553,0-1-0.448-1-1s0.447-1,1-1c2.757,0,5,2.243,5,5S50.764,20.002,48.007,20.002z" fill="#116FFF"/></g></g><g><g><path d="M15.994,11.999c-2.757,0-5-2.243-5-5s2.243-5,5-5c0.553,0,1,0.448,1,1s-0.447,1-1,1       c-1.654,0-3,1.346-3,3s1.346,3,3,3c0.553,0,1,0.448,1,1S16.547,11.999,15.994,11.999z" fill="#116FFF"/></g></g></g><g><g><path d="M48.004,20.002H36c-0.553,0-1-0.448-1-1s0.447-1,1-1h12.004c0.553,0,1,0.448,1,1      S48.557,20.002,48.004,20.002z" fill="#116FFF"/></g></g><g><g><path d="M48.004,12.002h-32.01c-0.553,0-1-0.448-1-1s0.447-1,1-1h32.01c0.553,0,1,0.448,1,1      S48.557,12.002,48.004,12.002z" fill="#116FFF"/></g></g><g><g><path d="M33.001,3.999H15.994c-0.553,0-1-0.448-1-1s0.447-1,1-1h17.007c0.553,0,1,0.448,1,1      S33.554,3.999,33.001,3.999z" fill="#116FFF"/></g></g></g><g><g><path d="M33.872,52.001c-0.553,0-1-0.447-1-1v-4.999c0-0.553,0.447-1,1-1s1,0.447,1,1v4.999     C34.872,51.554,34.425,52.001,33.872,52.001z" fill="#116FFF"/></g></g><g><g><path d="M30.128,52.001c-0.553,0-1-0.447-1-1v-4.999c0-0.553,0.447-1,1-1s1,0.447,1,1v4.999     C31.128,51.554,30.681,52.001,30.128,52.001z" fill="#116FFF"/></g></g></g></svg>