<?xml version="1.0" ?><svg id="Icon_Set" style="enable-background:new 0 0 64 64;" version="1.1" viewBox="0 0 64 64" xml:space="preserve" xmlns="http://www.w3.org/2000/svg" xmlns:xlink="http://www.w3.org/1999/xlink"><style type="text/css">
	.st0{fill:#263238;}
	.st1{fill:#FFD740;}
	.st2{fill:#FF5252;}
	.st3{fill:#40C4FF;}
	.st4{fill:#4DB6AC;}
	.st5{fill:#FFFFFF;}
	.st6{fill:#FFD345;}
</style><g><g><path class="st4" d="M35,33h-8c-1.381,0-2.5-1.119-2.5-2.5v-7c0-1.381,1.119-2.5,2.5-2.5h8c1.381,0,2.5,1.119,2.5,2.5v7    C37.5,31.881,36.381,33,35,33z"/><path class="st0" d="M35,33.5h-8c-1.654,0-3-1.346-3-3v-7c0-1.654,1.346-3,3-3h8c1.654,0,3,1.346,3,3v7    C38,32.154,36.654,33.5,35,33.5z M27,21.5c-1.103,0-2,0.897-2,2v7c0,1.103,0.897,2,2,2h8c1.103,0,2-0.897,2-2v-7    c0-1.103-0.897-2-2-2H27z"/></g><g><path class="st1" d="M21.5,61h-13c-0.552,0-1-0.448-1-1v-4c0-0.552,0.448-1,1-1h13c0.552,0,1,0.448,1,1v4    C22.5,60.552,22.052,61,21.5,61z"/><path class="st0" d="M21.5,61.5h-13C7.673,61.5,7,60.827,7,60v-4c0-0.827,0.673-1.5,1.5-1.5h13c0.827,0,1.5,0.673,1.5,1.5v4    C23,60.827,22.327,61.5,21.5,61.5z M8.5,55.5C8.224,55.5,8,55.724,8,56v4c0,0.276,0.224,0.5,0.5,0.5h13c0.276,0,0.5-0.224,0.5-0.5    v-4c0-0.276-0.224-0.5-0.5-0.5H8.5z"/></g><g><path class="st0" d="M19.5,58.5H15c-0.276,0-0.5-0.224-0.5-0.5s0.224-0.5,0.5-0.5h4.5c0.276,0,0.5,0.224,0.5,0.5    S19.776,58.5,19.5,58.5z"/></g><g><path class="st1" d="M21.5,55h-13c-0.552,0-1-0.448-1-1v-4c0-0.552,0.448-1,1-1h13c0.552,0,1,0.448,1,1v4    C22.5,54.552,22.052,55,21.5,55z"/><path class="st0" d="M21.5,55.5h-13C7.673,55.5,7,54.827,7,54v-4c0-0.827,0.673-1.5,1.5-1.5h13c0.827,0,1.5,0.673,1.5,1.5v4    C23,54.827,22.327,55.5,21.5,55.5z M8.5,49.5C8.224,49.5,8,49.724,8,50v4c0,0.276,0.224,0.5,0.5,0.5h13c0.276,0,0.5-0.224,0.5-0.5    v-4c0-0.276-0.224-0.5-0.5-0.5H8.5z"/></g><g><path class="st0" d="M19.5,52.5H15c-0.276,0-0.5-0.224-0.5-0.5s0.224-0.5,0.5-0.5h4.5c0.276,0,0.5,0.224,0.5,0.5    S19.776,52.5,19.5,52.5z"/></g><g><path class="st1" d="M21.5,49h-13c-0.552,0-1-0.448-1-1v-4c0-0.552,0.448-1,1-1h13c0.552,0,1,0.448,1,1v4    C22.5,48.552,22.052,49,21.5,49z"/><path class="st0" d="M21.5,49.5h-13C7.673,49.5,7,48.827,7,48v-4c0-0.827,0.673-1.5,1.5-1.5h13c0.827,0,1.5,0.673,1.5,1.5v4    C23,48.827,22.327,49.5,21.5,49.5z M8.5,43.5C8.224,43.5,8,43.724,8,44v4c0,0.276,0.224,0.5,0.5,0.5h13c0.276,0,0.5-0.224,0.5-0.5    v-4c0-0.276-0.224-0.5-0.5-0.5H8.5z"/></g><g><path class="st0" d="M19.5,46.5H15c-0.276,0-0.5-0.224-0.5-0.5s0.224-0.5,0.5-0.5h4.5c0.276,0,0.5,0.224,0.5,0.5    S19.776,46.5,19.5,46.5z"/></g><g><path class="st0" d="M43.5,28.5h-4c-0.276,0-0.5-0.224-0.5-0.5s0.224-0.5,0.5-0.5h4c3.859,0,7-3.14,7-7s-3.141-7-7-7H41    c-0.276,0-0.5-0.224-0.5-0.5c0-5.238-4.262-9.5-9.5-9.5s-9.5,4.262-9.5,9.5c0,0.276-0.224,0.5-0.5,0.5h-2.5c-3.86,0-7,3.14-7,7    s3.14,7,7,7h4c0.276,0,0.5,0.224,0.5,0.5s-0.224,0.5-0.5,0.5h-4c-4.411,0-8-3.589-8-8s3.589-8,8-8h2.012    c0.262-5.559,4.866-10,10.488-10s10.227,4.441,10.488,10H43.5c4.411,0,8,3.589,8,8S47.911,28.5,43.5,28.5z"/></g><g><path class="st0" d="M35.5,21.5h-9c-0.276,0-0.5-0.224-0.5-0.5v-1.5c0-2.757,2.243-5,5-5s5,2.243,5,5V21    C36,21.276,35.776,21.5,35.5,21.5z M27,20.5h8v-1c0-2.206-1.794-4-4-4c-2.206,0-4,1.794-4,4V20.5z"/></g><g><path class="st0" d="M58,58.5H39c-0.827,0-1.5-0.673-1.5-1.5V44c0-0.827,0.673-1.5,1.5-1.5h19c0.827,0,1.5,0.673,1.5,1.5v13    C59.5,57.827,58.827,58.5,58,58.5z M39,43.5c-0.275,0-0.5,0.224-0.5,0.5v13c0,0.276,0.225,0.5,0.5,0.5h19    c0.275,0,0.5-0.224,0.5-0.5V44c0-0.276-0.225-0.5-0.5-0.5H39z"/></g><g><path class="st0" d="M61,61.5H36c-0.827,0-1.5-0.673-1.5-1.5v-1c0-0.827,0.673-1.5,1.5-1.5h25c0.827,0,1.5,0.673,1.5,1.5v1    C62.5,60.827,61.827,61.5,61,61.5z M36,58.5c-0.275,0-0.5,0.224-0.5,0.5v1c0,0.276,0.225,0.5,0.5,0.5h25    c0.275,0,0.5-0.224,0.5-0.5v-1c0-0.276-0.225-0.5-0.5-0.5H36z"/></g><g><rect class="st3" height="10" width="21" x="38" y="45.5"/><path class="st0" d="M59,56H38c-0.276,0-0.5-0.224-0.5-0.5v-10c0-0.276,0.224-0.5,0.5-0.5h21c0.276,0,0.5,0.224,0.5,0.5v10    C59.5,55.776,59.276,56,59,56z M38.5,55h20v-9h-20V55z"/></g><g><path class="st0" d="M29.762,30.152c-0.133,0-0.26-0.053-0.354-0.146l-2.829-2.829c-0.195-0.195-0.195-0.512,0-0.707    s0.512-0.195,0.707,0l2.475,2.475l4.95-4.95c0.195-0.195,0.512-0.195,0.707,0s0.195,0.512,0,0.707l-5.303,5.304    C30.022,30.099,29.895,30.152,29.762,30.152z"/></g><g><path class="st0" d="M15,33c-0.276,0-0.5-0.224-0.5-0.5v-1c0-0.276,0.224-0.5,0.5-0.5s0.5,0.224,0.5,0.5v1    C15.5,32.776,15.276,33,15,33z"/></g><g><path class="st0" d="M15,40.5c-0.276,0-0.5-0.224-0.5-0.5v-5.5c0-0.276,0.224-0.5,0.5-0.5s0.5,0.224,0.5,0.5V40    C15.5,40.276,15.276,40.5,15,40.5z"/></g><g><path class="st0" d="M44.5,33c-0.276,0-0.5-0.224-0.5-0.5v-1c0-0.276,0.224-0.5,0.5-0.5s0.5,0.224,0.5,0.5v1    C45,32.776,44.776,33,44.5,33z"/></g><g><path class="st0" d="M44.5,40.5c-0.276,0-0.5-0.224-0.5-0.5v-5.5c0-0.276,0.224-0.5,0.5-0.5s0.5,0.224,0.5,0.5V40    C45,40.276,44.776,40.5,44.5,40.5z"/></g><g><path class="st0" d="M13,6.5H9C8.724,6.5,8.5,6.276,8.5,6S8.724,5.5,9,5.5h4c0.276,0,0.5,0.224,0.5,0.5S13.276,6.5,13,6.5z"/></g><g><path class="st0" d="M11,8.5c-0.276,0-0.5-0.224-0.5-0.5V4c0-0.276,0.224-0.5,0.5-0.5s0.5,0.224,0.5,0.5v4    C11.5,8.276,11.276,8.5,11,8.5z"/></g><g><path class="st0" d="M6,13H2c-0.276,0-0.5-0.224-0.5-0.5S1.724,12,2,12h4c0.276,0,0.5,0.224,0.5,0.5S6.276,13,6,13z"/></g><g><path class="st0" d="M4,15c-0.276,0-0.5-0.224-0.5-0.5v-4C3.5,10.224,3.724,10,4,10s0.5,0.224,0.5,0.5v4C4.5,14.776,4.276,15,4,15    z"/></g><g><path class="st0" d="M27,52.5h-1c-0.276,0-0.5-0.224-0.5-0.5s0.224-0.5,0.5-0.5h1c0.276,0,0.5,0.224,0.5,0.5S27.276,52.5,27,52.5z    "/></g><g><path class="st0" d="M34.5,52.5H29c-0.276,0-0.5-0.224-0.5-0.5s0.224-0.5,0.5-0.5h5.5c0.276,0,0.5,0.224,0.5,0.5    S34.776,52.5,34.5,52.5z"/></g></g></svg>