<?xml version="1.0" ?><svg id="Layer_1" style="enable-background:new 0 0 64 64;" version="1.1" viewBox="0 0 64 64" xml:space="preserve" xmlns="http://www.w3.org/2000/svg" xmlns:xlink="http://www.w3.org/1999/xlink"><style type="text/css">
	.st0{fill:#263238;}
	.st1{fill:#FFD740;}
	.st2{fill:#40C4FF;}
	.st3{fill:#FF5252;}
	.st4{fill:#4DB6AC;}
	.st5{fill:#FFFFFF;}
	.st6{fill:#37474F;}
	.st7{fill:#4FC3F7;}
</style><g><g><path class="st0" d="M60,57.5H4c-1.654,0-3-1.346-3-3s1.346-3,3-3h56c1.654,0,3,1.346,3,3S61.654,57.5,60,57.5z M4,52.5    c-1.103,0-2,0.897-2,2s0.897,2,2,2h56c1.103,0,2-0.897,2-2s-0.897-2-2-2H4z"/></g><g><path class="st0" d="M34.5,55h-5c-0.827,0-1.5-0.673-1.5-1.5V52c0-0.276,0.224-0.5,0.5-0.5S29,51.724,29,52v1.5    c0,0.275,0.224,0.5,0.5,0.5h5c0.276,0,0.5-0.225,0.5-0.5V52c0-0.276,0.224-0.5,0.5-0.5S36,51.724,36,52v1.5    C36,54.327,35.327,55,34.5,55z"/></g><g><path class="st0" d="M12.5,5.5h-4C8.224,5.5,8,5.276,8,5s0.224-0.5,0.5-0.5h4C12.776,4.5,13,4.724,13,5S12.776,5.5,12.5,5.5z"/></g><g><path class="st0" d="M10.5,7.5C10.224,7.5,10,7.276,10,7V3c0-0.276,0.224-0.5,0.5-0.5S11,2.724,11,3v4    C11,7.276,10.776,7.5,10.5,7.5z"/></g><g><path class="st0" d="M5.5,12h-4C1.224,12,1,11.776,1,11.5S1.224,11,1.5,11h4C5.776,11,6,11.224,6,11.5S5.776,12,5.5,12z"/></g><g><path class="st0" d="M3.5,14C3.224,14,3,13.776,3,13.5v-4C3,9.224,3.224,9,3.5,9S4,9.224,4,9.5v4C4,13.776,3.776,14,3.5,14z"/></g><g><path class="st0" d="M53,47.5H11c-0.827,0-1.5-0.673-1.5-1.5V20c0-0.827,0.673-1.5,1.5-1.5h42c0.827,0,1.5,0.673,1.5,1.5v26    C54.5,46.827,53.827,47.5,53,47.5z M11,19.5c-0.276,0-0.5,0.225-0.5,0.5v26c0,0.275,0.224,0.5,0.5,0.5h42    c0.276,0,0.5-0.225,0.5-0.5V20c0-0.275-0.224-0.5-0.5-0.5H11z"/></g><g><path class="st0" d="M7,61.5H5c-0.276,0-0.5-0.224-0.5-0.5s0.224-0.5,0.5-0.5h2c0.276,0,0.5,0.224,0.5,0.5S7.276,61.5,7,61.5z"/></g><g><path class="st0" d="M29,61.5H9c-0.276,0-0.5-0.224-0.5-0.5s0.224-0.5,0.5-0.5h20c0.276,0,0.5,0.224,0.5,0.5S29.276,61.5,29,61.5z    "/></g><g><path class="st0" d="M54,12.5h-2c-0.276,0-0.5-0.224-0.5-0.5s0.224-0.5,0.5-0.5h2c0.276,0,0.5,0.224,0.5,0.5S54.276,12.5,54,12.5z    "/></g><g><path class="st0" d="M50,12.5H30c-0.276,0-0.5-0.224-0.5-0.5s0.224-0.5,0.5-0.5h20c0.276,0,0.5,0.224,0.5,0.5S50.276,12.5,50,12.5    z"/></g><g><path class="st0" d="M57,50.5c-0.276,0-0.5-0.224-0.5-0.5V18.5c0-1.103-0.897-2-2-2h-45c-1.103,0-2,0.897-2,2V50    c0,0.276-0.224,0.5-0.5,0.5S6.5,50.276,6.5,50V18.5c0-1.654,1.346-3,3-3h45c1.654,0,3,1.346,3,3V50    C57.5,50.276,57.276,50.5,57,50.5z"/></g><g><path class="st1" d="M54,25H10v-5c0-0.552,0.448-1,1-1h42c0.552,0,1,0.448,1,1V25z"/><path class="st0" d="M54,25.5H10c-0.276,0-0.5-0.224-0.5-0.5v-5c0-0.827,0.673-1.5,1.5-1.5h42c0.827,0,1.5,0.673,1.5,1.5v5    C54.5,25.276,54.276,25.5,54,25.5z M10.5,24.5h43V20c0-0.275-0.224-0.5-0.5-0.5H11c-0.276,0-0.5,0.225-0.5,0.5V24.5z"/></g><g><rect class="st4" height="13" width="13" x="15" y="30"/><path class="st0" d="M28,43.5H15c-0.276,0-0.5-0.224-0.5-0.5V30c0-0.276,0.224-0.5,0.5-0.5h13c0.276,0,0.5,0.224,0.5,0.5v13    C28.5,43.276,28.276,43.5,28,43.5z M15.5,42.5h12v-12h-12V42.5z"/></g><g><rect class="st2" height="4" width="16" x="33" y="30"/><path class="st0" d="M49,34.5H33c-0.276,0-0.5-0.224-0.5-0.5v-4c0-0.276,0.224-0.5,0.5-0.5h16c0.276,0,0.5,0.224,0.5,0.5v4    C49.5,34.276,49.276,34.5,49,34.5z M33.5,33.5h15v-3h-15V33.5z"/></g><g><path class="st0" d="M49,38.5H33c-0.276,0-0.5-0.224-0.5-0.5s0.224-0.5,0.5-0.5h16c0.276,0,0.5,0.224,0.5,0.5S49.276,38.5,49,38.5    z"/></g><g><path class="st0" d="M41,42.5h-8c-0.276,0-0.5-0.224-0.5-0.5s0.224-0.5,0.5-0.5h8c0.276,0,0.5,0.224,0.5,0.5S41.276,42.5,41,42.5z    "/></g></g></svg>