<?xml version="1.0" ?><!DOCTYPE svg  PUBLIC '-//W3C//DTD SVG 1.1//EN'  'http://www.w3.org/Graphics/SVG/1.1/DTD/svg11.dtd'><svg enable-background="new 0 0 64 64" height="64px" id="icons" version="1.1" viewBox="0 0 64 64" width="64px" xml:space="preserve" xmlns="http://www.w3.org/2000/svg" xmlns:xlink="http://www.w3.org/1999/xlink"><g><g><g><polygon fill="#FFFFFF" points="45,6 45,1 14,1 14,34.042 14,50.99 22,50.99 42,50.99 50,50.99 50,34.042 50,6    "/></g></g><g><g><path d="M42,50.99V51c0,0.74-0.09,1.47-0.24,2.17L44,54.35l-3,5.2l-2.25-1.189C37.689,59.34,36.42,60.1,35,60.54     V63h-6v-2.46c-1.41-0.44-2.681-1.2-3.75-2.18L23,59.55l-3-5.2l2.24-1.18C22.09,52.47,22,51.74,22,51v-0.01     c0-0.75,0.09-1.46,0.24-2.16L20,47.55l3-5.2l2.25,1.29c1.069-0.979,2.34-1.739,3.75-2.18V39h6v2.46     c1.42,0.44,2.689,1.2,3.75,2.18L41,42.35l3,5.2l-2.24,1.28C41.91,49.53,42,50.24,42,50.99z M38,51c0-3.31-2.681-6-6-6     c-3.311,0-6,2.69-6,6s2.689,6,6,6C35.319,57,38,54.31,38,51z" fill="#94C1FF"/></g></g><g><g><path d="M35,51c0-1.65-1.34-3-3-3c-1.65,0-3,1.35-3,3s1.35,3,3,3C33.66,54,35,52.65,35,51z M32,57     c-3.311,0-6-2.69-6-6s2.689-6,6-6c3.319,0,6,2.69,6,6S35.319,57,32,57z" fill="#5C9EFF"/></g></g><g><g><polygon fill="#FFFFFF" points="50,6 45,6 45,1    "/></g></g><g><g><path d="M25.42,15.41l2.82,2.83c-2.341,2.35-6.141,2.35-8.48,0c-2.34-2.34-2.34-6.141,0-8.48     C20.93,8.58,22.46,8,24,8v4c-1.101,0-2,0.89-2,2c0,1.1,0.899,2,2,2C24.56,16,25.06,15.78,25.42,15.41z" fill="#94C1FF"/></g></g><g><g><path d="M28.24,9.76c2.35,2.34,2.35,6.141,0,8.48l-2.82-2.83C25.779,15.05,26,14.55,26,14c0-1.11-0.891-2-2-2V8     C25.54,8,27.069,8.58,28.24,9.76z" fill="#5C9EFF"/></g></g></g><g><g><g><g><path d="M21.999,51.992h-7.997c-0.553,0-1-0.447-1-1V1c0-0.553,0.447-1,1-1s1,0.447,1,1v48.992h6.997      c0.553,0,1,0.447,1,1S22.552,51.992,21.999,51.992z" fill="#116FFF"/></g></g><g><g><path d="M49.998,51.992h-7.999c-0.553,0-1-0.447-1-1s0.447-1,1-1h7.999c0.553,0,1,0.447,1,1      S50.551,51.992,49.998,51.992z" fill="#116FFF"/></g></g><g><g><path d="M49.998,51.992c-0.553,0-1-0.447-1-1V6c0-0.553,0.447-1,1-1s1,0.447,1,1v44.992      C50.998,51.545,50.551,51.992,49.998,51.992z" fill="#116FFF"/></g></g><g><g><path d="M44.998,2H14.002c-0.553,0-1-0.447-1-1s0.447-1,1-1h30.996c0.553,0,1,0.447,1,1S45.551,2,44.998,2z" fill="#116FFF"/></g></g><g><g><path d="M49.998,7c-0.256,0-0.512-0.098-0.707-0.293l-5-5c-0.391-0.391-0.391-1.023,0-1.414s1.023-0.391,1.414,0      l5,5c0.391,0.391,0.391,1.023,0,1.414C50.51,6.902,50.254,7,49.998,7z" fill="#116FFF"/></g></g><g><g><path d="M49.998,7h-5c-0.553,0-1-0.447-1-1s0.447-1,1-1h5c0.553,0,1,0.447,1,1S50.551,7,49.998,7z" fill="#116FFF"/></g></g><g><g><path d="M44.998,7c-0.553,0-1-0.447-1-1V1c0-0.553,0.447-1,1-1s1,0.447,1,1v5C45.998,6.553,45.551,7,44.998,7z" fill="#116FFF"/></g></g><g><g><path d="M24,17c-1.654,0-3-1.346-3-3s1.346-3,3-3s3,1.346,3,3S25.654,17,24,17z M24,13c-0.552,0-1,0.448-1,1      s0.448,1,1,1s1-0.448,1-1S24.552,13,24,13z" fill="#116FFF"/></g></g><g><g><path d="M24,13c-0.553,0-1-0.447-1-1V8c0-0.553,0.447-1,1-1s1,0.447,1,1v4C25,12.553,24.553,13,24,13z" fill="#116FFF"/></g></g><g><g><path d="M23.999,21c-1.869,0-3.627-0.729-4.948-2.051C17.729,17.628,17,15.87,17,14s0.729-3.628,2.051-4.949      C20.372,7.729,22.13,7,23.999,7c1.87,0,3.628,0.729,4.95,2.051C30.271,10.372,31,12.13,31,14s-0.729,3.628-2.051,4.949      C27.627,20.271,25.869,21,23.999,21z M23.999,9c-1.335,0-2.59,0.521-3.534,1.465S19,12.664,19,14s0.521,2.591,1.465,3.535      S22.664,19,23.999,19c1.336,0,2.592-0.521,3.536-1.465S29,15.336,29,14s-0.521-2.591-1.465-3.535S25.335,9,23.999,9z" fill="#116FFF"/></g></g><g><g><path d="M28.242,19.242c-0.256,0-0.512-0.098-0.707-0.293l-2.828-2.828c-0.391-0.391-0.391-1.023,0-1.414      s1.023-0.391,1.414,0l2.828,2.828c0.391,0.391,0.391,1.023,0,1.414C28.754,19.145,28.498,19.242,28.242,19.242z" fill="#116FFF"/></g></g><g><g><path d="M44.999,12h-11c-0.553,0-1-0.447-1-1s0.447-1,1-1h11c0.553,0,1,0.447,1,1S45.552,12,44.999,12z" fill="#116FFF"/></g></g><g><g><path d="M44.999,15h-11c-0.553,0-1-0.447-1-1s0.447-1,1-1h11c0.553,0,1,0.447,1,1S45.552,15,44.999,15z" fill="#116FFF"/></g></g><g><g><path d="M39.999,17.998h-6c-0.553,0-1-0.447-1-1s0.447-1,1-1h6c0.553,0,1,0.447,1,1S40.552,17.998,39.999,17.998      z" fill="#116FFF"/></g></g><g><g><path d="M30.001,28h-11c-0.553,0-1-0.447-1-1s0.447-1,1-1h11c0.553,0,1,0.447,1,1S30.554,28,30.001,28z" fill="#116FFF"/></g></g><g><g><path d="M30.001,30.998h-11c-0.553,0-1-0.447-1-1s0.447-1,1-1h11c0.553,0,1,0.447,1,1      S30.554,30.998,30.001,30.998z" fill="#116FFF"/></g></g><g><g><path d="M25.001,33.998h-6c-0.553,0-1-0.447-1-1s0.447-1,1-1h6c0.553,0,1,0.447,1,1S25.554,33.998,25.001,33.998      z" fill="#116FFF"/></g></g><g><g><path d="M34.002,36c-0.553,0-1-0.447-1-1V23c0-0.553,0.447-1,1-1s1,0.447,1,1v12      C35.002,35.553,34.555,36,34.002,36z" fill="#116FFF"/></g></g><g><g><path d="M46.002,36h-12c-0.553,0-1-0.447-1-1s0.447-1,1-1h12c0.553,0,1,0.447,1,1S46.555,36,46.002,36z" fill="#116FFF"/></g></g><g><g><path d="M37,36c-0.553,0-1-0.447-1-1v-4.002c0-0.553,0.447-1,1-1s1,0.447,1,1V35C38,35.553,37.553,36,37,36z" fill="#116FFF"/></g></g><g><g><path d="M40.002,36c-0.553,0-1-0.447-1-1v-9.002c0-0.553,0.447-1,1-1s1,0.447,1,1V35      C41.002,35.553,40.555,36,40.002,36z" fill="#116FFF"/></g></g><g><g><path d="M43,36c-0.553,0-1-0.447-1-1v-6.002c0-0.553,0.447-1,1-1s1,0.447,1,1V35C44,35.553,43.553,36,43,36z" fill="#116FFF"/></g></g></g><g><g><g><path d="M35,64h-6c-0.553,0-1-0.447-1-1v-1.752c-1.04-0.407-2.007-0.971-2.888-1.685l-1.646,0.868      c-0.479,0.25-1.065,0.08-1.333-0.385l-3-5.197c-0.136-0.235-0.17-0.517-0.095-0.777c0.075-0.262,0.254-0.48,0.495-0.607      l1.591-0.838C21.042,52.08,21,51.535,21,51c0-0.545,0.043-1.1,0.129-1.655l-1.626-0.93c-0.23-0.132-0.399-0.351-0.469-0.607      s-0.033-0.53,0.1-0.761l3-5.197c0.275-0.477,0.883-0.644,1.363-0.368l1.636,0.937c0.877-0.706,1.838-1.265,2.867-1.667V39      c0-0.553,0.447-1,1-1h6c0.553,0,1,0.447,1,1v1.751c1.029,0.402,1.989,0.961,2.866,1.667l1.638-0.937      c0.479-0.275,1.087-0.108,1.362,0.368l3,5.197c0.133,0.23,0.169,0.504,0.1,0.761s-0.238,0.476-0.469,0.607l-1.626,0.93      C42.957,49.9,43,50.455,43,51c0,0.535-0.042,1.08-0.125,1.627l1.591,0.838c0.241,0.127,0.42,0.346,0.495,0.607      c0.075,0.261,0.041,0.542-0.095,0.777l-3,5.197c-0.268,0.466-0.854,0.636-1.333,0.385l-1.646-0.868      c-0.881,0.714-1.848,1.277-2.888,1.685V63C36,63.553,35.553,64,35,64z M30,62h4v-1.459c0-0.437,0.283-0.822,0.699-0.954      c1.251-0.394,2.387-1.054,3.375-1.962c0.313-0.287,0.77-0.345,1.144-0.148l1.397,0.737l1.999-3.464l-1.322-0.697      c-0.398-0.21-0.607-0.66-0.511-1.101C40.927,52.295,41,51.638,41,51c0-0.64-0.073-1.297-0.219-1.954      c-0.094-0.428,0.101-0.866,0.479-1.084l1.371-0.784l-2-3.466l-1.386,0.793c-0.377,0.216-0.851,0.162-1.172-0.131      c-0.993-0.911-2.129-1.57-3.373-1.961C34.284,42.282,34,41.896,34,41.459V40h-4v1.459c0,0.438-0.284,0.823-0.701,0.954      c-1.245,0.391-2.381,1.051-3.374,1.961c-0.322,0.294-0.797,0.346-1.173,0.131l-1.384-0.793l-2,3.466l1.371,0.784      c0.379,0.218,0.573,0.656,0.479,1.084C23.073,49.703,23,50.36,23,51c0,0.638,0.073,1.295,0.219,1.952      c0.097,0.44-0.112,0.891-0.511,1.101l-1.322,0.697l1.999,3.464l1.397-0.737c0.374-0.197,0.831-0.139,1.144,0.148      c0.988,0.908,2.124,1.568,3.375,1.962C29.717,59.719,30,60.104,30,60.541V62z" fill="#116FFF"/></g></g><g><g><path d="M32,58c-3.859,0-7-3.141-7-7s3.141-7,7-7s7,3.141,7,7S35.859,58,32,58z M32,46c-2.757,0-5,2.243-5,5      s2.243,5,5,5s5-2.243,5-5S34.757,46,32,46z" fill="#116FFF"/></g></g><g><g><path d="M32,55c-2.206,0-4-1.794-4-4s1.794-4,4-4s4,1.794,4,4S34.206,55,32,55z M32,49c-1.103,0-2,0.897-2,2      s0.897,2,2,2s2-0.897,2-2S33.103,49,32,49z" fill="#116FFF"/></g></g></g></g></svg>