<?xml version="1.0" ?><!DOCTYPE svg  PUBLIC '-//W3C//DTD SVG 1.1//EN'  'http://www.w3.org/Graphics/SVG/1.1/DTD/svg11.dtd'><svg enable-background="new 0 0 64 64" height="64px" id="icons" version="1.1" viewBox="0 0 64 64" width="64px" xml:space="preserve" xmlns="http://www.w3.org/2000/svg" xmlns:xlink="http://www.w3.org/1999/xlink"><g><g><g><path d="M50,53.505c1.11,0,2,0.891,2,2c0,1.101-0.89,2-2,2H40v-4H50z" fill="#94C1FF"/></g></g><g><g><rect fill="#94C1FF" height="4" width="22" x="18" y="53.505"/></g></g><g><g><polygon fill="#D7E9FF" points="18,53.505 18,57.505 16,57.505 13,55.505 16,53.505    "/></g></g><g><g><polygon fill="#94C1FF" points="22,18.495 22,21.495 20.5,21.495 19,21.495 19,18.495    "/></g></g><g><g><circle cx="20.5" cy="34.495" fill="#D7E9FF" r="1.5"/></g></g><g><g><path d="M33.5,32.995c0.83,0,1.5,0.67,1.5,1.5s-0.67,1.5-1.5,1.5s-1.5-0.67-1.5-1.5c0-0.03,0-0.06,0.01-0.08     C32.04,33.625,32.7,32.995,33.5,32.995z" fill="#D7E9FF"/></g></g><g><g><circle cx="46.5" cy="34.495" fill="#D7E9FF" r="1.5"/></g></g><g><g><polygon fill="#94C1FF" points="48,18.495 48,21.495 46.5,21.495 45,21.495 45,18.495    "/></g></g><g><g><path d="M20.5,21.495H22v-3h-3v3H20.5z M22,34.495c0-0.83-0.67-1.5-1.5-1.5s-1.5,0.67-1.5,1.5s0.67,1.5,1.5,1.5     S22,35.325,22,34.495z M35,34.495c0-0.83-0.67-1.5-1.5-1.5c-0.8,0-1.46,0.63-1.49,1.42C32,34.436,32,34.465,32,34.495     c0,0.83,0.67,1.5,1.5,1.5S35,35.325,35,34.495z M45,34.495c0,0.83,0.67,1.5,1.5,1.5s1.5-0.67,1.5-1.5s-0.67-1.5-1.5-1.5     S45,33.665,45,34.495z M46.5,21.495H48v-3h-3v3H46.5z M60,9.495v36H7v-5v-5v-8v-8v-5v-5H60z" fill="#FFFFFF"/></g></g><g><g><rect fill="#94C1FF" height="5" width="6" x="1" y="40.495"/></g></g><g><g><path d="M4,24.495c-1.66,0-3,1.35-3,3v-8h6v8C7,25.845,5.66,24.495,4,24.495z" fill="#5C9EFF"/></g></g><g><g><path d="M4,24.495c1.66,0,3,1.35,3,3c0,1.66-1.34,3-3,3s-3-1.34-3-3C1,25.845,2.34,24.495,4,24.495z" fill="#D7E9FF"/></g></g><g><g><rect fill="#94C1FF" height="5" width="6" x="1" y="14.495"/></g></g><g><g><rect fill="#94C1FF" height="5" width="6" x="1" y="9.495"/></g></g><g><g><rect fill="#94C1FF" height="5" width="6" x="1" y="35.495"/></g></g><g><g><path d="M4,30.495c1.66,0,3-1.34,3-3v8H1v-8C1,29.155,2.34,30.495,4,30.495z" fill="#5C9EFF"/></g></g><g><g><path d="M3,6.495h58c1.1,0,2,0.9,2,2v38c0,1.1-0.9,2-2,2H3c-1.1,0-2-0.9-2-2v-1h6h53v-36H7H1v-1     C1,7.396,1.9,6.495,3,6.495z" fill="#5C9EFF"/></g></g></g><g><g><g><path d="M61,49.5H3c-1.654,0-3-1.346-3-3V8.498c0-1.654,1.346-3,3-3h58c1.654,0,3,1.346,3,3V46.5     C64,48.154,62.654,49.5,61,49.5z M3,7.498c-0.552,0-1,0.448-1,1V46.5c0,0.552,0.448,1,1,1h58c0.552,0,1-0.448,1-1V8.498     c0-0.552-0.448-1-1-1H3z" fill="#116FFF"/></g></g><g><g><path d="M60,46.5H7.003c-0.553,0-1-0.447-1-1V9.498c0-0.553,0.447-1,1-1H60c0.553,0,1,0.447,1,1V45.5     C61,46.053,60.553,46.5,60,46.5z M8.003,44.5H59V10.498H8.003V44.5z" fill="#116FFF"/></g></g><g><g><path d="M4,31.498c-2.206,0-4-1.794-4-4s1.794-4,4-4s4,1.794,4,4S6.206,31.498,4,31.498z M4,25.498     c-1.103,0-2,0.897-2,2s0.897,2,2,2s2-0.897,2-2S5.103,25.498,4,25.498z" fill="#116FFF"/></g></g><g><g><path d="M7.003,20.498H1c-0.553,0-1-0.447-1-1s0.447-1,1-1h6.003c0.553,0,1,0.447,1,1S7.556,20.498,7.003,20.498z     " fill="#116FFF"/></g></g><g><g><path d="M7.003,15.498H1c-0.553,0-1-0.447-1-1s0.447-1,1-1h6.003c0.553,0,1,0.447,1,1S7.556,15.498,7.003,15.498z     " fill="#116FFF"/></g></g><g><g><path d="M7.003,10.498H1c-0.553,0-1-0.447-1-1s0.447-1,1-1h6.003c0.553,0,1,0.447,1,1S7.556,10.498,7.003,10.498z     " fill="#116FFF"/></g></g><g><g><path d="M7.003,46.5H1c-0.553,0-1-0.447-1-1s0.447-1,1-1h6.003c0.553,0,1,0.447,1,1S7.556,46.5,7.003,46.5z" fill="#116FFF"/></g></g><g><g><path d="M7.003,41.5H1c-0.553,0-1-0.447-1-1s0.447-1,1-1h6.003c0.553,0,1,0.447,1,1S7.556,41.5,7.003,41.5z" fill="#116FFF"/></g></g><g><g><path d="M7.003,36.5H1c-0.553,0-1-0.447-1-1s0.447-1,1-1h6.003c0.553,0,1,0.447,1,1S7.556,36.5,7.003,36.5z" fill="#116FFF"/></g></g><g><g><g><path d="M32.007,35.412c-0.038,0-0.076-0.002-0.114-0.007c-7.064-0.808-12.392-6.786-12.392-13.907      c0-0.553,0.447-1,1-1s1,0.447,1,1c0,6.104,4.564,11.229,10.618,11.921c0.549,0.063,0.943,0.558,0.88,1.106      C32.941,35.036,32.509,35.412,32.007,35.412z" fill="#116FFF"/></g></g><g><g><path d="M34.996,35.412c-0.502,0-0.935-0.376-0.992-0.887c-0.063-0.549,0.331-1.044,0.88-1.106      c6.053-0.692,10.617-5.817,10.617-11.921c0-0.553,0.447-1,1-1s1,0.447,1,1c0,7.121-5.327,13.1-12.391,13.907      C35.072,35.41,35.034,35.412,34.996,35.412z" fill="#116FFF"/></g></g><g><g><path d="M22.001,22.498h-3c-0.553,0-1-0.447-1-1v-3c0-0.553,0.447-1,1-1h3c0.553,0,1,0.447,1,1v3      C23.001,22.051,22.554,22.498,22.001,22.498z M20.001,20.498h1v-1h-1V20.498z" fill="#116FFF"/></g></g><g><g><path d="M48.001,22.498h-3c-0.553,0-1-0.447-1-1v-3c0-0.553,0.447-1,1-1h3c0.553,0,1,0.447,1,1v3      C49.001,22.051,48.554,22.498,48.001,22.498z M46.001,20.498h1v-1h-1V20.498z" fill="#116FFF"/></g></g><g><g><path d="M33.501,36.998c-1.379,0-2.5-1.121-2.5-2.5s1.121-2.5,2.5-2.5s2.5,1.121,2.5,2.5      S34.88,36.998,33.501,36.998z M33.501,33.998c-0.275,0-0.5,0.225-0.5,0.5s0.225,0.5,0.5,0.5s0.5-0.225,0.5-0.5      S33.776,33.998,33.501,33.998z" fill="#116FFF"/></g></g><g><g><path d="M46.5,36.998c-1.379,0-2.5-1.121-2.5-2.5s1.121-2.5,2.5-2.5s2.5,1.121,2.5,2.5      S47.879,36.998,46.5,36.998z M46.5,33.998c-0.275,0-0.5,0.225-0.5,0.5s0.225,0.5,0.5,0.5s0.5-0.225,0.5-0.5      S46.775,33.998,46.5,33.998z" fill="#116FFF"/></g></g><g><g><path d="M20.501,36.998c-1.379,0-2.5-1.121-2.5-2.5s1.121-2.5,2.5-2.5s2.5,1.121,2.5,2.5      S21.88,36.998,20.501,36.998z M20.501,33.998c-0.275,0-0.5,0.225-0.5,0.5s0.225,0.5,0.5,0.5s0.5-0.225,0.5-0.5      S20.776,33.998,20.501,33.998z" fill="#116FFF"/></g></g><g><g><path d="M32.001,35.498h-10c-0.553,0-1-0.447-1-1s0.447-1,1-1h10c0.553,0,1,0.447,1,1      S32.554,35.498,32.001,35.498z" fill="#116FFF"/></g></g><g><g><path d="M45,35.498h-9.999c-0.553,0-1-0.447-1-1s0.447-1,1-1H45c0.553,0,1,0.447,1,1S45.553,35.498,45,35.498z" fill="#116FFF"/></g></g></g><g><g><g><path d="M50,58.502c-0.553,0-1-0.447-1-1s0.447-1,1-1c0.552,0,1-0.448,1-1s-0.448-1-1-1c-0.553,0-1-0.447-1-1      s0.447-1,1-1c1.654,0,3,1.346,3,3S51.654,58.502,50,58.502z" fill="#116FFF"/></g></g><g><g><path d="M50,54.502H16c-0.553,0-1-0.447-1-1s0.447-1,1-1h34c0.553,0,1,0.447,1,1S50.553,54.502,50,54.502z" fill="#116FFF"/></g></g><g><g><path d="M50,58.502H16c-0.553,0-1-0.447-1-1s0.447-1,1-1h34c0.553,0,1,0.447,1,1S50.553,58.502,50,58.502z" fill="#116FFF"/></g></g><g><g><path d="M13.001,56.502c-0.323,0-0.641-0.156-0.833-0.445c-0.307-0.46-0.183-1.08,0.277-1.387l3-2      c0.46-0.307,1.081-0.182,1.387,0.277c0.307,0.46,0.183,1.08-0.277,1.387l-3,2C13.384,56.447,13.191,56.502,13.001,56.502z" fill="#116FFF"/></g></g><g><g><path d="M15.999,58.502c-0.19,0-0.383-0.055-0.554-0.168l-3-2c-0.46-0.307-0.584-0.927-0.277-1.387      c0.305-0.46,0.926-0.584,1.387-0.277l3,2c0.46,0.307,0.584,0.927,0.277,1.387C16.64,58.346,16.322,58.502,15.999,58.502z" fill="#116FFF"/></g></g><g><g><path d="M13,56.502h-1c-0.553,0-1-0.447-1-1s0.447-1,1-1h1c0.553,0,1,0.447,1,1S13.553,56.502,13,56.502z" fill="#116FFF"/></g></g><g><g><path d="M18,58.502c-0.553,0-1-0.447-1-1v-4c0-0.553,0.447-1,1-1s1,0.447,1,1v4      C19,58.055,18.553,58.502,18,58.502z" fill="#116FFF"/></g></g><g><g><path d="M40,58.502c-0.553,0-1-0.447-1-1v-4c0-0.553,0.447-1,1-1s1,0.447,1,1v4      C41,58.055,40.553,58.502,40,58.502z" fill="#116FFF"/></g></g></g></g></svg>