<?xml version="1.0" ?><!DOCTYPE svg  PUBLIC '-//W3C//DTD SVG 1.1//EN'  'http://www.w3.org/Graphics/SVG/1.1/DTD/svg11.dtd'><svg enable-background="new 0 0 64 64" height="64px" id="icons" version="1.1" viewBox="0 0 64 64" width="64px" xml:space="preserve" xmlns="http://www.w3.org/2000/svg" xmlns:xlink="http://www.w3.org/1999/xlink"><g><g><g><g><path d="M52.005,27.99c1.1,0,2,0.899,2,2c0,1.109-0.9,2-2,2h-0.01c-1.11-0.01-1.99-0.891-1.99-2      C50.005,28.89,50.895,27.99,52.005,27.99z" fill="#FFFFFF"/></g></g></g><g><g><g><circle cx="51.995" cy="15" fill="#94C1FF" r="9"/></g></g></g><g><g><g><rect fill="#94C1FF" height="3" width="4" x="50.005" y="56"/></g></g></g><g><g><g><polygon fill="#94C1FF" points="50.005,56 50.005,59 46.005,59 46.005,58.96 46.005,56     "/></g></g></g><g><g><g><rect fill="#94C1FF" height="3" width="3.99" x="54.005" y="56"/></g></g></g><g><g><g><path d="M57.005,46c1.1,0,2,0.89,2,2c0,1.1-0.9,2-2,2c-1.11,0-2-0.9-2-2C55.005,46.89,55.895,46,57.005,46z" fill="#FFFFFF"/></g></g></g><g><g><g><path d="M47.005,46c1.1,0,2,0.89,2,2c0,1.1-0.9,2-2,2c-1.11,0-2-0.9-2-2C45.005,46.89,45.895,46,47.005,46z" fill="#FFFFFF"/></g></g></g><g><g><g><path d="M46.005,58.96V59h-5.01V48c0-6.08,4.93-11,11-11c6.079,0,11,4.92,11,11v11h-5v-3h-3.99h-4h-4V58.96z       M59.005,48c0-1.11-0.9-2-2-2c-1.11,0-2,0.89-2,2c0,1.1,0.89,2,2,2C58.104,50,59.005,49.1,59.005,48z M49.005,48      c0-1.11-0.9-2-2-2c-1.11,0-2,0.89-2,2c0,1.1,0.89,2,2,2C48.104,50,49.005,49.1,49.005,48z" fill="#D7E9FF"/></g></g></g><g><g><g><path d="M3.995,35l2,2v4h25.989V29H5.995v4L3.995,35z M5.935,52h26l0.05-7h-26L5.935,52z M33.984,19l-2-2v-4      H5.995v12h25.989v-4L33.984,19z M36.984,9v50H1.005V9H36.984z" fill="#D7E9FF"/></g></g></g><g><g><g><path d="M36.984,7v2H1.005V7c0-1.11,0.899-2,2-2h31.979C36.085,5,36.984,5.89,36.984,7z" fill="#94C1FF"/></g></g></g><g><g><g><polygon fill="#FFFFFF" points="33.984,19 31.984,21 31.984,25 5.995,25 5.995,13 31.984,13 31.984,17     "/></g></g></g><g><g><g><polygon fill="#FFFFFF" points="31.984,29 31.984,41 5.995,41 5.995,37 3.995,35 5.995,33 5.995,29     "/></g></g></g><g><g><g><polygon fill="#FFFFFF" points="31.984,45 31.935,52 5.935,52 5.984,45     "/></g></g></g></g><g><g><g><g><g><path d="M1.006,7.998c-0.553,0-1-0.447-1-1c0-1.654,1.346-3,3-3c0.553,0,1,0.447,1,1s-0.447,1-1,1       c-0.552,0-1,0.448-1,1C2.006,7.551,1.559,7.998,1.006,7.998z" fill="#116FFF"/></g></g></g><g><g><g><path d="M36.98,7.998c-0.553,0-1-0.447-1-1c0-0.552-0.448-1-1-1c-0.553,0-1-0.447-1-1s0.447-1,1-1       c1.654,0,3,1.346,3,3C37.98,7.551,37.533,7.998,36.98,7.998z" fill="#116FFF"/></g></g></g><g><g><g><path d="M34.98,5.998H3.006c-0.553,0-1-0.447-1-1s0.447-1,1-1H34.98c0.553,0,1,0.447,1,1       S35.533,5.998,34.98,5.998z" fill="#116FFF"/></g></g></g><g><g><g><path d="M4.036,7.998c-0.553,0-1.005-0.447-1.005-1s0.442-1,0.994-1h0.011c0.552,0,1,0.447,1,1       S4.588,7.998,4.036,7.998z" fill="#116FFF"/></g></g></g><g><g><g><path d="M7.034,7.998c-0.553,0-1.005-0.447-1.005-1s0.442-1,0.994-1h0.011c0.552,0,1,0.447,1,1       S7.586,7.998,7.034,7.998z" fill="#116FFF"/></g></g></g><g><g><g><path d="M10.038,7.998c-0.553,0-1.005-0.447-1.005-1s0.442-1,0.994-1h0.011c0.552,0,1,0.447,1,1       S10.59,7.998,10.038,7.998z" fill="#116FFF"/></g></g></g><g><g><g><path d="M1.006,60.002c-0.553,0-1-0.447-1-1V6.998c0-0.553,0.447-1,1-1s1,0.447,1,1v52.004       C2.006,59.555,1.559,60.002,1.006,60.002z" fill="#116FFF"/></g></g></g><g><g><g><path d="M36.98,60.002c-0.553,0-1-0.447-1-1V6.998c0-0.553,0.447-1,1-1s1,0.447,1,1v52.004       C37.98,59.555,37.533,60.002,36.98,60.002z" fill="#116FFF"/></g></g></g><g><g><g><path d="M36.98,9.998H1.006c-0.553,0-1-0.447-1-1s0.447-1,1-1H36.98c0.553,0,1,0.447,1,1       S37.533,9.998,36.98,9.998z" fill="#116FFF"/></g></g></g><g><g><g><path d="M36.98,60.002H1.006c-0.553,0-1-0.447-1-1s0.447-1,1-1H36.98c0.553,0,1,0.447,1,1       S37.533,60.002,36.98,60.002z" fill="#116FFF"/></g></g></g></g><g><g><g><g><path d="M31.98,41.996H5.99c-0.553,0-1-0.447-1-1v-3.579L3.281,35.71c-0.188-0.188-0.293-0.441-0.293-0.707       s0.105-0.52,0.293-0.707l1.709-1.708V29c0-0.553,0.447-1,1-1h25.99c0.553,0,1,0.447,1,1v11.996       C32.98,41.549,32.533,41.996,31.98,41.996z M6.99,39.996h23.99V30H6.99v3.002c0,0.266-0.105,0.52-0.293,0.707l-1.294,1.294       l1.294,1.293c0.188,0.188,0.293,0.441,0.293,0.707V39.996z" fill="#116FFF"/></g></g></g><g><g><g><path d="M27.98,34.498H9.99c-0.553,0-1-0.447-1-1s0.447-1,1-1h17.99c0.553,0,1,0.447,1,1       S28.533,34.498,27.98,34.498z" fill="#116FFF"/></g></g></g><g><g><g><path d="M18.984,37.498H9.99c-0.553,0-1-0.447-1-1s0.447-1,1-1h8.994c0.553,0,1,0.447,1,1       S19.537,37.498,18.984,37.498z" fill="#116FFF"/></g></g></g></g><g><g><g><g><path d="M31.979,25.998H5.99c-0.553,0-1-0.447-1-1V13.002c0-0.553,0.447-1,1-1h25.988c0.553,0,1,0.447,1,1       v3.588l1.709,1.708c0.188,0.188,0.293,0.441,0.293,0.707s-0.105,0.52-0.293,0.707l-1.709,1.707v3.579       C32.979,25.551,32.531,25.998,31.979,25.998z M6.99,23.998h23.988v-2.993c0-0.266,0.105-0.52,0.293-0.707l1.294-1.293       l-1.294-1.294c-0.188-0.188-0.293-0.441-0.293-0.707v-3.002H6.99V23.998z" fill="#116FFF"/></g></g></g><g><g><g><path d="M27.98,18.5H9.99c-0.553,0-1-0.447-1-1s0.447-1,1-1h17.99c0.553,0,1,0.447,1,1S28.533,18.5,27.98,18.5z       " fill="#116FFF"/></g></g></g><g><g><g><path d="M18.984,21.5H9.99c-0.553,0-1-0.447-1-1s0.447-1,1-1h8.994c0.553,0,1,0.447,1,1       S19.537,21.5,18.984,21.5z" fill="#116FFF"/></g></g></g></g><g><g><g><path d="M31.938,52.998h-26c-0.267,0-0.521-0.106-0.709-0.295s-0.293-0.444-0.291-0.711l0.041-7.001      c0.003-0.55,0.45-0.994,1-0.994H31.98c0.267,0,0.521,0.106,0.709,0.295c0.188,0.189,0.293,0.445,0.291,0.711l-0.043,7.001      C32.935,52.554,32.487,52.998,31.938,52.998z M6.943,50.998h24l0.031-5.001H6.973L6.943,50.998z" fill="#116FFF"/></g></g></g><g><g><g><g><path d="M16.973,56.003H5.98c-0.553,0-1-0.447-1-1s0.447-1,1-1h10.992c0.553,0,1,0.447,1,1       S17.525,56.003,16.973,56.003z" fill="#116FFF"/></g></g></g><g><g><g><path d="M32.005,56.003c-0.553,0-1.005-0.447-1.005-1s0.442-1,0.994-1h0.011c0.552,0,1,0.447,1,1       S32.557,56.003,32.005,56.003z" fill="#116FFF"/></g></g></g><g><g><g><path d="M29.005,56.003c-0.553,0-1.005-0.447-1.005-1s0.442-1,0.994-1h0.011c0.552,0,1,0.447,1,1       S29.557,56.003,29.005,56.003z" fill="#116FFF"/></g></g></g></g><g><g><g><g><path d="M62.994,48.998c-0.553,0-1-0.447-1-1c0-5.514-4.486-10-10-10s-10,4.486-10,10c0,0.553-0.447,1-1,1       s-1-0.447-1-1c0-6.617,5.383-12,12-12s12,5.383,12,12C63.994,48.551,63.547,48.998,62.994,48.998z" fill="#116FFF"/></g></g></g><g><g><g><path d="M62.992,59.998L62.992,59.998c-0.553,0-1-0.448-1-1l0.002-11c0-0.553,0.448-1,1-1l0,0       c0.553,0,1,0.448,1,1l-0.002,11C63.992,59.551,63.544,59.998,62.992,59.998z" fill="#116FFF"/></g></g></g><g><g><g><path d="M40.994,59.998c-0.553,0-1-0.447-1-1v-11c0-0.553,0.447-1,1-1s1,0.447,1,1v11       C41.994,59.551,41.547,59.998,40.994,59.998z" fill="#116FFF"/></g></g></g><g><g><g><path d="M51.994,37.998c-0.553,0-1-0.447-1-1v-5.004c0-0.553,0.447-1,1-1s1,0.447,1,1v5.004       C52.994,37.551,52.547,37.998,51.994,37.998z" fill="#116FFF"/></g></g></g><g><g><g><path d="M51.998,32.994c-1.654,0-3-1.346-3-3s1.346-3,3-3s3,1.346,3,3S53.652,32.994,51.998,32.994z        M51.998,28.994c-0.552,0-1,0.448-1,1s0.448,1,1,1s1-0.448,1-1S52.55,28.994,51.998,28.994z" fill="#116FFF"/></g></g></g><g><g><g><path d="M56.998,50.997c-1.654,0-3-1.346-3-3s1.346-3,3-3s3,1.346,3,3S58.652,50.997,56.998,50.997z        M56.998,46.997c-0.552,0-1,0.448-1,1s0.448,1,1,1s1-0.448,1-1S57.55,46.997,56.998,46.997z" fill="#116FFF"/></g></g></g><g><g><g><path d="M46.998,50.997c-1.654,0-3-1.346-3-3s1.346-3,3-3s3,1.346,3,3S48.652,50.997,46.998,50.997z        M46.998,46.997c-0.552,0-1,0.448-1,1s0.448,1,1,1s1-0.448,1-1S47.55,46.997,46.998,46.997z" fill="#116FFF"/></g></g></g><g><g><g><path d="M57.996,59.998c-0.553,0-1-0.447-1-1v-3.002c0-0.553,0.447-1,1-1s1,0.447,1,1v3.002       C58.996,59.551,58.549,59.998,57.996,59.998z" fill="#116FFF"/></g></g></g><g><g><g><path d="M57.996,56.996H46c-0.553,0-1-0.447-1-1s0.447-1,1-1h11.996c0.553,0,1,0.447,1,1       S58.549,56.996,57.996,56.996z" fill="#116FFF"/></g></g></g><g><g><g><path d="M46,59.955c-0.553,0-1-0.447-1-1v-2.959c0-0.553,0.447-1,1-1s1,0.447,1,1v2.959       C47,59.508,46.553,59.955,46,59.955z" fill="#116FFF"/></g></g></g><g><g><g><path d="M49.998,59.998c-0.553,0-1-0.447-1-1v-3.002c0-0.553,0.447-1,1-1s1,0.447,1,1v3.002       C50.998,59.551,50.551,59.998,49.998,59.998z" fill="#116FFF"/></g></g></g><g><g><g><path d="M53.998,59.998c-0.553,0-1-0.447-1-1v-3.002c0-0.553,0.447-1,1-1s1,0.447,1,1v3.002       C54.998,59.551,54.551,59.998,53.998,59.998z" fill="#116FFF"/></g></g></g><g><g><g><path d="M62.992,59.998H40.994c-0.553,0-1-0.447-1-1s0.447-1,1-1h21.998c0.553,0,1,0.447,1,1       S63.545,59.998,62.992,59.998z" fill="#116FFF"/></g></g></g></g><g><g><g><g><g><path d="M56.99,16.001c-0.256,0-0.512-0.098-0.707-0.293l-1.998-2c-0.391-0.391-0.391-1.024,0-1.414        c0.391-0.391,1.023-0.391,1.414,0l1.998,2c0.391,0.391,0.391,1.024,0,1.414C57.502,15.903,57.246,16.001,56.99,16.001z" fill="#116FFF"/></g></g></g><g><g><g><path d="M54.992,17.997c-0.256,0-0.512-0.098-0.707-0.293c-0.391-0.391-0.391-1.023,0-1.414l1.998-1.999        c0.391-0.391,1.023-0.391,1.414,0s0.391,1.023,0,1.414l-1.998,1.999C55.504,17.899,55.248,17.997,54.992,17.997z" fill="#116FFF"/></g></g></g><g><g><g><path d="M46.994,16.002c-0.256,0-0.512-0.098-0.707-0.293c-0.391-0.391-0.391-1.023,0-1.414l2-2.001        c0.391-0.391,1.023-0.391,1.414,0s0.391,1.023,0,1.414l-2,2.001C47.506,15.904,47.25,16.002,46.994,16.002z" fill="#116FFF"/></g></g></g><g><g><g><path d="M48.994,17.999c-0.256,0-0.512-0.098-0.707-0.293l-2-2c-0.391-0.391-0.391-1.023,0-1.414        s1.023-0.391,1.414,0l2,2c0.391,0.391,0.391,1.023,0,1.414C49.506,17.901,49.25,17.999,48.994,17.999z" fill="#116FFF"/></g></g></g><g><g><g><path d="M50.995,20.003c-0.08,0-0.162-0.01-0.243-0.03c-0.536-0.134-0.862-0.676-0.729-1.212l1.999-8.002        c0.133-0.535,0.675-0.864,1.212-0.728c0.536,0.134,0.862,0.676,0.729,1.212l-1.999,8.002        C51.851,19.699,51.443,20.003,50.995,20.003z" fill="#116FFF"/></g></g></g></g><g><g><g><path d="M51.994,25c-5.514,0-10-4.486-10-10s4.486-10,10-10s10,4.486,10,10S57.508,25,51.994,25z M51.994,7       c-4.411,0-8,3.589-8,8s3.589,8,8,8s8-3.589,8-8S56.405,7,51.994,7z" fill="#116FFF"/></g></g></g></g></g></svg>