<?xml version="1.0" ?><svg id="Icon_Set" style="enable-background:new 0 0 64 64;" version="1.1" viewBox="0 0 64 64" xml:space="preserve" xmlns="http://www.w3.org/2000/svg" xmlns:xlink="http://www.w3.org/1999/xlink"><style type="text/css">
	.st0{fill:#263238;}
	.st1{fill:#FFD740;}
	.st2{fill:#FF5252;}
	.st3{fill:#40C4FF;}
	.st4{fill:#4DB6AC;}
	.st5{fill:#FFFFFF;}
	.st6{fill:#FFD345;}
</style><g><g><path class="st0" d="M41.5,11h-1c-0.276,0-0.5-0.224-0.5-0.5s0.224-0.5,0.5-0.5h1c0.276,0,0.5,0.224,0.5,0.5S41.776,11,41.5,11z"/></g><g><path class="st0" d="M54.5,11h-11c-0.276,0-0.5-0.224-0.5-0.5s0.224-0.5,0.5-0.5h11c0.276,0,0.5,0.224,0.5,0.5S54.776,11,54.5,11z    "/></g><g><path class="st0" d="M58.5,8h-13C45.224,8,45,7.776,45,7.5S45.224,7,45.5,7h13C58.776,7,59,7.224,59,7.5S58.776,8,58.5,8z"/></g><g><path class="st0" d="M8,16c-0.276,0-0.5-0.224-0.5-0.5v-4C7.5,11.224,7.724,11,8,11s0.5,0.224,0.5,0.5v4C8.5,15.776,8.276,16,8,16    z"/></g><g><path class="st0" d="M10,14H6c-0.276,0-0.5-0.224-0.5-0.5S5.724,13,6,13h4c0.276,0,0.5,0.224,0.5,0.5S10.276,14,10,14z"/></g><g><path class="st0" d="M17,11.5c-0.276,0-0.5-0.224-0.5-0.5V7c0-0.276,0.224-0.5,0.5-0.5s0.5,0.224,0.5,0.5v4    C17.5,11.276,17.276,11.5,17,11.5z"/></g><g><path class="st0" d="M19,9.5h-4c-0.276,0-0.5-0.224-0.5-0.5s0.224-0.5,0.5-0.5h4c0.276,0,0.5,0.224,0.5,0.5S19.276,9.5,19,9.5z"/></g><g><path class="st2" d="M39.642,22.858C36.023,19.239,31.023,17,25.5,17v20L39.642,22.858z"/><path class="st0" d="M25.5,37.5c-0.064,0-0.129-0.012-0.191-0.038C25.122,37.385,25,37.202,25,37V17c0-0.276,0.224-0.5,0.5-0.5    c5.476,0,10.624,2.132,14.496,6.004c0.195,0.195,0.195,0.512,0,0.707L25.854,37.354C25.758,37.449,25.63,37.5,25.5,37.5z     M26,17.506v18.287l12.931-12.931C35.412,19.515,30.855,17.627,26,17.506z"/></g><g><path class="st3" d="M40.983,24.345L26.914,38.414l12.728,12.728C43.261,47.523,45.5,42.523,45.5,37    C45.5,32.198,43.804,27.793,40.983,24.345z"/><path class="st0" d="M39.642,51.642c-0.128,0-0.256-0.049-0.354-0.146L26.561,38.768c-0.195-0.195-0.195-0.512,0-0.707    l14.069-14.069c0.1-0.1,0.239-0.155,0.378-0.146c0.141,0.007,0.272,0.074,0.362,0.183C44.355,27.677,46,32.284,46,37    c0,5.476-2.132,10.624-6.004,14.496C39.898,51.593,39.77,51.642,39.642,51.642z M27.621,38.414l12.017,12.017    C43.1,46.791,45,42.042,45,37c0-4.301-1.438-8.506-4.06-11.905L27.621,38.414z"/></g><g><path class="st1" d="M24.086,38.414c-0.09-0.09-0.166-0.187-0.236-0.288c-0.005-0.007-0.011-0.012-0.015-0.018    c-0.098-0.147-0.167-0.305-0.222-0.468c-0.013-0.039-0.024-0.077-0.035-0.117C23.532,37.351,23.5,37.176,23.5,37V17.101    C13.394,18.105,5.5,26.63,5.5,37c0,11.046,8.954,20,20,20c4.802,0,9.207-1.696,12.655-4.517L24.086,38.414z"/><path class="st0" d="M25.5,57.5C14.196,57.5,5,48.304,5,37c0-10.583,7.932-19.352,18.451-20.396    c0.143-0.012,0.28,0.032,0.385,0.127S24,16.96,24,17.101V37c0,0.114,0.02,0.238,0.061,0.392c0.074,0.231,0.127,0.343,0.19,0.438    c0.064,0.09,0.121,0.164,0.188,0.231l14.069,14.069c0.1,0.1,0.153,0.237,0.146,0.378c-0.007,0.141-0.074,0.272-0.183,0.362    C34.823,55.855,30.216,57.5,25.5,57.5z M23,17.661C13.27,18.899,6,27.118,6,37c0,10.752,8.748,19.5,19.5,19.5    c4.301,0,8.506-1.438,11.905-4.06L23.732,38.768c-0.112-0.112-0.209-0.233-0.295-0.36c-0.13-0.189-0.221-0.381-0.298-0.607    l-0.043-0.146C23.031,37.415,23,37.201,23,37V17.661z"/></g><g><rect class="st1" height="6" width="6" x="52.5" y="31"/><path class="st0" d="M58.5,37.5h-6c-0.276,0-0.5-0.224-0.5-0.5v-6c0-0.276,0.224-0.5,0.5-0.5h6c0.276,0,0.5,0.224,0.5,0.5v6    C59,37.276,58.776,37.5,58.5,37.5z M53,36.5h5v-5h-5V36.5z"/></g><g><rect class="st2" height="6" width="6" x="52.5" y="41"/><path class="st0" d="M58.5,47.5h-6c-0.276,0-0.5-0.224-0.5-0.5v-6c0-0.276,0.224-0.5,0.5-0.5h6c0.276,0,0.5,0.224,0.5,0.5v6    C59,47.276,58.776,47.5,58.5,47.5z M53,46.5h5v-5h-5V46.5z"/></g><g><rect class="st3" height="6" width="6" x="52.5" y="51"/><path class="st0" d="M58.5,57.5h-6c-0.276,0-0.5-0.224-0.5-0.5v-6c0-0.276,0.224-0.5,0.5-0.5h6c0.276,0,0.5,0.224,0.5,0.5v6    C59,57.276,58.776,57.5,58.5,57.5z M53,56.5h5v-5h-5V56.5z"/></g></g></svg>