<?xml version="1.0" ?><!DOCTYPE svg  PUBLIC '-//W3C//DTD SVG 1.1//EN'  'http://www.w3.org/Graphics/SVG/1.1/DTD/svg11.dtd'><svg enable-background="new 0 0 64 64" height="64px" id="icons" version="1.1" viewBox="0 0 64 64" width="64px" xml:space="preserve" xmlns="http://www.w3.org/2000/svg" xmlns:xlink="http://www.w3.org/1999/xlink"><g><g><rect fill="#94C1FF" height="8" width="18" x="1" y="47"/></g><g><polygon fill="#5C9EFF" points="16,43.99 19,47 1,47 4,43.99   "/></g><g><rect fill="#94C1FF" height="8" width="18" x="1" y="55"/></g><g><rect fill="#94C1FF" height="8" width="18" x="45" y="55"/></g><g><polygon fill="#5C9EFF" points="60,43.99 63,47 45,47 48,43.99   "/></g><g><rect fill="#94C1FF" height="8" width="18" x="45" y="47"/></g><g><rect fill="#94C1FF" height="8" width="17.99" x="23.01" y="55"/></g><g><rect fill="#94C1FF" height="8" width="17.99" x="23.01" y="47"/></g><g><polygon fill="#5C9EFF" points="38,43.99 41,47 23.01,47 26,43.99   "/></g><g><path d="M50,19c0,4.42-3.58,8-8,8h-0.26H32H20.5c-3.59,0-6.5-2.91-6.5-6.5v-4c0,3.58,2.91,6.49,6.5,6.49h21.24H42    c4.42,0,8-3.58,8-7.99V19z" fill="#D7E9FF"/></g><g><path d="M42,7c4.42,0,8,3.58,8,8c0,4.41-3.58,7.99-8,7.99h-0.26H20.5c-3.59,0-6.5-2.91-6.5-6.49    c0-3.59,2.91-6.5,6.5-6.5h0.68C22.12,4.88,26.6,1,32,1c4.27,0,7.98,2.44,9.8,6H42z" fill="#FFFFFF"/></g></g><g><g><g><g><g><path d="M18.998,64.002H1.002c-0.553,0-1-0.447-1-1V46.998c0-0.553,0.447-1,1-1h17.996c0.553,0,1,0.447,1,1       v16.004C19.998,63.555,19.551,64.002,18.998,64.002z M2.002,62.002h15.996V47.998H2.002V62.002z" fill="#116FFF"/></g><g><path d="M5.03,52.002c-0.553,0-1.005-0.447-1.005-1s0.442-1,0.994-1H5.03c0.552,0,1,0.447,1,1       S5.582,52.002,5.03,52.002z" fill="#116FFF"/></g><g><path d="M5.03,60.002c-0.553,0-1.005-0.447-1.005-1s0.442-1,0.994-1H5.03c0.552,0,1,0.447,1,1       S5.582,60.002,5.03,60.002z" fill="#116FFF"/></g><g><path d="M18.998,56H1.002c-0.553,0-1-0.447-1-1s0.447-1,1-1h17.996c0.553,0,1,0.447,1,1S19.551,56,18.998,56z" fill="#116FFF"/></g></g><g><g><path d="M10.999,53c-0.15,0-0.303-0.034-0.446-0.105c-0.494-0.247-0.694-0.848-0.447-1.342l1-2       c0.248-0.495,0.849-0.693,1.342-0.447c0.494,0.247,0.694,0.848,0.447,1.342l-1,2C11.719,52.798,11.366,53,10.999,53z" fill="#116FFF"/></g><g><path d="M13.999,53c-0.15,0-0.303-0.034-0.446-0.105c-0.494-0.247-0.694-0.848-0.447-1.342l1-2       c0.247-0.495,0.848-0.693,1.342-0.447c0.494,0.247,0.694,0.848,0.447,1.342l-1,2C14.719,52.798,14.366,53,13.999,53z" fill="#116FFF"/></g></g><g><g><path d="M10.999,61c-0.15,0-0.303-0.034-0.446-0.105c-0.494-0.247-0.694-0.848-0.447-1.342l1-2       c0.248-0.494,0.849-0.692,1.342-0.447c0.494,0.247,0.694,0.848,0.447,1.342l-1,2C11.719,60.798,11.366,61,10.999,61z" fill="#116FFF"/></g><g><path d="M13.999,61c-0.15,0-0.303-0.034-0.446-0.105c-0.494-0.247-0.694-0.848-0.447-1.342l1-2       c0.247-0.494,0.848-0.692,1.342-0.447c0.494,0.247,0.694,0.848,0.447,1.342l-1,2C14.719,60.798,14.366,61,13.999,61z" fill="#116FFF"/></g></g></g><g><path d="M1.002,47.998c-0.256,0-0.511-0.098-0.706-0.292c-0.392-0.39-0.392-1.023-0.002-1.414l2.998-3.006     c0.391-0.393,1.023-0.391,1.414-0.002c0.392,0.39,0.392,1.023,0.002,1.414L1.71,47.704C1.515,47.9,1.258,47.998,1.002,47.998z" fill="#116FFF"/></g><g><path d="M18.998,47.998c-0.257,0-0.513-0.098-0.708-0.294l-2.998-3.006c-0.39-0.391-0.39-1.024,0.002-1.414     c0.391-0.39,1.023-0.39,1.414,0.002l2.998,3.006c0.39,0.391,0.39,1.024-0.002,1.414C19.509,47.9,19.254,47.998,18.998,47.998z" fill="#116FFF"/></g><g><path d="M16,44.992H4c-0.553,0-1-0.447-1-1s0.447-1,1-1h12c0.553,0,1,0.447,1,1S16.553,44.992,16,44.992z" fill="#116FFF"/></g></g><g><g><g><g><path d="M41,64.002H23.004c-0.553,0-1-0.447-1-1V46.998c0-0.553,0.447-1,1-1H41c0.553,0,1,0.447,1,1v16.004       C42,63.555,41.553,64.002,41,64.002z M24.004,62.002H40V47.998H24.004V62.002z" fill="#116FFF"/></g><g><path d="M27.034,52.002c-0.553,0-1.005-0.447-1.005-1s0.442-1,0.994-1h0.011c0.552,0,1,0.447,1,1       S27.586,52.002,27.034,52.002z" fill="#116FFF"/></g><g><path d="M27.034,60.002c-0.553,0-1.005-0.447-1.005-1s0.442-1,0.994-1h0.011c0.552,0,1,0.447,1,1       S27.586,60.002,27.034,60.002z" fill="#116FFF"/></g><g><path d="M41,56H23.004c-0.553,0-1-0.447-1-1s0.447-1,1-1H41c0.553,0,1,0.447,1,1S41.553,56,41,56z" fill="#116FFF"/></g></g><g><g><path d="M33.003,53c-0.15,0-0.303-0.034-0.446-0.105c-0.494-0.247-0.694-0.848-0.447-1.342l1-2       c0.248-0.495,0.849-0.693,1.342-0.447c0.494,0.247,0.694,0.848,0.447,1.342l-1,2C33.723,52.798,33.37,53,33.003,53z" fill="#116FFF"/></g><g><path d="M36.003,53c-0.15,0-0.303-0.034-0.446-0.105c-0.494-0.247-0.694-0.848-0.447-1.342l1-2       c0.247-0.495,0.848-0.693,1.342-0.447c0.494,0.247,0.694,0.848,0.447,1.342l-1,2C36.723,52.798,36.37,53,36.003,53z" fill="#116FFF"/></g></g><g><g><path d="M33.003,61c-0.15,0-0.303-0.034-0.446-0.105c-0.494-0.247-0.694-0.848-0.447-1.342l1-2       c0.248-0.494,0.849-0.692,1.342-0.447c0.494,0.247,0.694,0.848,0.447,1.342l-1,2C33.723,60.798,33.37,61,33.003,61z" fill="#116FFF"/></g><g><path d="M36.003,61c-0.15,0-0.303-0.034-0.446-0.105c-0.494-0.247-0.694-0.848-0.447-1.342l1-2       c0.247-0.494,0.848-0.692,1.342-0.447c0.494,0.247,0.694,0.848,0.447,1.342l-1,2C36.723,60.798,36.37,61,36.003,61z" fill="#116FFF"/></g></g></g><g><path d="M23.004,47.998c-0.256,0-0.511-0.098-0.706-0.292c-0.392-0.39-0.392-1.023-0.002-1.414l2.998-3.006     c0.391-0.393,1.023-0.391,1.414-0.002c0.392,0.39,0.392,1.023,0.002,1.414l-2.998,3.006C23.517,47.9,23.26,47.998,23.004,47.998z     " fill="#116FFF"/></g><g><path d="M41,47.998c-0.257,0-0.513-0.098-0.708-0.294l-2.998-3.006c-0.39-0.391-0.39-1.024,0.002-1.414     s1.024-0.39,1.414,0.002l2.998,3.006c0.39,0.391,0.39,1.024-0.002,1.414C41.511,47.9,41.256,47.998,41,47.998z" fill="#116FFF"/></g><g><path d="M38.002,44.992h-12c-0.553,0-1-0.447-1-1s0.447-1,1-1h12c0.553,0,1,0.447,1,1     S38.555,44.992,38.002,44.992z" fill="#116FFF"/></g></g><g><g><g><g><path d="M62.998,64.002H45.002c-0.553,0-1-0.447-1-1V46.998c0-0.553,0.447-1,1-1h17.996c0.553,0,1,0.447,1,1       v16.004C63.998,63.555,63.551,64.002,62.998,64.002z M46.002,62.002h15.996V47.998H46.002V62.002z" fill="#116FFF"/></g><g><path d="M49.032,52.002c-0.553,0-1.005-0.447-1.005-1s0.442-1,0.994-1h0.011c0.552,0,1,0.447,1,1       S49.584,52.002,49.032,52.002z" fill="#116FFF"/></g><g><path d="M49.032,60.002c-0.553,0-1.005-0.447-1.005-1s0.442-1,0.994-1h0.011c0.552,0,1,0.447,1,1       S49.584,60.002,49.032,60.002z" fill="#116FFF"/></g><g><path d="M62.998,56H45.002c-0.553,0-1-0.447-1-1s0.447-1,1-1h17.996c0.553,0,1,0.447,1,1S63.551,56,62.998,56z" fill="#116FFF"/></g></g><g><g><path d="M55.001,53c-0.15,0-0.303-0.034-0.446-0.105c-0.494-0.247-0.694-0.848-0.447-1.342l1-2       c0.248-0.495,0.848-0.693,1.342-0.447c0.494,0.247,0.694,0.848,0.447,1.342l-1,2C55.721,52.798,55.368,53,55.001,53z" fill="#116FFF"/></g><g><path d="M58.001,53c-0.15,0-0.303-0.034-0.446-0.105c-0.494-0.247-0.694-0.848-0.447-1.342l1-2       c0.248-0.495,0.849-0.693,1.342-0.447c0.494,0.247,0.694,0.848,0.447,1.342l-1,2C58.721,52.798,58.368,53,58.001,53z" fill="#116FFF"/></g></g><g><g><path d="M55.001,61c-0.15,0-0.303-0.034-0.446-0.105c-0.494-0.247-0.694-0.848-0.447-1.342l1-2       c0.248-0.494,0.848-0.692,1.342-0.447c0.494,0.247,0.694,0.848,0.447,1.342l-1,2C55.721,60.798,55.368,61,55.001,61z" fill="#116FFF"/></g><g><path d="M58.001,61c-0.15,0-0.303-0.034-0.446-0.105c-0.494-0.247-0.694-0.848-0.447-1.342l1-2       c0.248-0.494,0.849-0.692,1.342-0.447c0.494,0.247,0.694,0.848,0.447,1.342l-1,2C58.721,60.798,58.368,61,58.001,61z" fill="#116FFF"/></g></g></g><g><path d="M45.002,47.998c-0.256,0-0.511-0.098-0.706-0.292c-0.392-0.39-0.392-1.023-0.002-1.414l2.998-3.006     c0.391-0.393,1.023-0.391,1.414-0.002c0.392,0.39,0.392,1.023,0.002,1.414l-2.998,3.006C45.515,47.9,45.258,47.998,45.002,47.998     z" fill="#116FFF"/></g><g><path d="M62.998,47.998c-0.257,0-0.513-0.098-0.708-0.294l-2.998-3.006c-0.39-0.391-0.39-1.024,0.002-1.414     s1.024-0.39,1.414,0.002l2.998,3.006c0.39,0.391,0.39,1.024-0.002,1.414C63.509,47.9,63.254,47.998,62.998,47.998z" fill="#116FFF"/></g><g><path d="M60,44.992H48c-0.553,0-1-0.447-1-1s0.447-1,1-1h12c0.553,0,1,0.447,1,1S60.553,44.992,60,44.992z" fill="#116FFF"/></g></g><g><g><g><path d="M41.998,23.994h-21.5c-0.553,0-1-0.447-1-1s0.447-1,1-1h21.5c0.553,0,1,0.447,1,1      S42.551,23.994,41.998,23.994z" fill="#116FFF"/></g><g><path d="M42.998,12.998c-0.553,0-1-0.447-1-1c0-5.514-4.486-10-10-10s-10,4.486-10,10c0,0.553-0.447,1-1,1      s-1-0.447-1-1c0-6.617,5.383-12,12-12s12,5.383,12,12C43.998,12.551,43.551,12.998,42.998,12.998z" fill="#116FFF"/></g><g><path d="M41.998,23.994c-0.553,0-1-0.447-1-1s0.447-1,1-1c3.859,0,7-3.139,7-6.996c0-3.859-3.141-7-7-7      c-0.553,0-1-0.447-1-1s0.447-1,1-1c4.963,0,9,4.037,9,9C50.998,19.959,46.961,23.994,41.998,23.994z" fill="#116FFF"/></g><g><path d="M20.498,23.994c-4.136,0-7.5-3.363-7.5-7.498s3.364-7.498,7.5-7.498c0.553,0,1,0.447,1,1s-0.447,1-1,1      c-3.032,0-5.5,2.467-5.5,5.498s2.468,5.498,5.5,5.498c0.553,0,1,0.447,1,1S21.051,23.994,20.498,23.994z" fill="#116FFF"/></g><g><g><path d="M41.998,27.998h-21.5c-0.553,0-1-0.447-1-1s0.447-1,1-1h21.5c0.553,0,1,0.447,1,1       S42.551,27.998,41.998,27.998z" fill="#116FFF"/></g><g><path d="M41.998,27.998c-0.553,0-1-0.447-1-1s0.447-1,1-1c3.859,0,7-3.14,7-6.998c0-0.553,0.447-1,1-1       s1,0.447,1,1C50.998,23.962,46.961,27.998,41.998,27.998z" fill="#116FFF"/></g><g><path d="M20.498,27.998c-4.136,0-7.5-3.363-7.5-7.498c0-0.553,0.447-1,1-1s1,0.447,1,1       c0,3.031,2.468,5.498,5.5,5.498c0.553,0,1,0.447,1,1S21.051,27.998,20.498,27.998z" fill="#116FFF"/></g></g><g><path d="M21.18,10.998h-0.682c-0.553,0-1-0.447-1-1s0.447-1,1-1h0.682c0.553,0,1,0.447,1,1      S21.732,10.998,21.18,10.998z" fill="#116FFF"/></g><g><path d="M41.998,7.998h-0.199c-0.553,0-1-0.447-1-1s0.447-1,1-1h0.199c0.553,0,1,0.447,1,1      S42.551,7.998,41.998,7.998z" fill="#116FFF"/></g></g><g><path d="M13.998,21.5c-0.553,0-1-0.447-1-1v-4.004c0-0.553,0.447-1,1-1s1,0.447,1,1V20.5     C14.998,21.053,14.551,21.5,13.998,21.5z" fill="#116FFF"/></g><g><path d="M49.998,20c-0.553,0-1-0.447-1-1v-4.002c0-0.553,0.447-1,1-1s1,0.447,1,1V19     C50.998,19.553,50.551,20,49.998,20z" fill="#116FFF"/></g></g><g><path d="M10,42.002c-0.553,0-1-0.447-1-1v-6c0-0.553,0.447-1,1-1s1,0.447,1,1v6C11,41.555,10.553,42.002,10,42.002    z" fill="#116FFF"/></g><g><path d="M54,36.002H10c-0.553,0-1-0.447-1-1s0.447-1,1-1h44c0.553,0,1,0.447,1,1S54.553,36.002,54,36.002z" fill="#116FFF"/></g><g><path d="M54,42c-0.553,0-1-0.447-1-1v-5.998c0-0.553,0.447-1,1-1s1,0.447,1,1V41C55,41.553,54.553,42,54,42z" fill="#116FFF"/></g><g><path d="M32,42c-0.553,0-1-0.447-1-1V25.002c0-0.553,0.447-1,1-1s1,0.447,1,1V41C33,41.553,32.553,42,32,42z" fill="#116FFF"/></g></g></svg>