<?xml version="1.0" ?><!DOCTYPE svg  PUBLIC '-//W3C//DTD SVG 1.1//EN'  'http://www.w3.org/Graphics/SVG/1.1/DTD/svg11.dtd'><svg enable-background="new 0 0 64 64" height="64px" id="icons" version="1.1" viewBox="0 0 64 64" width="64px" xml:space="preserve" xmlns="http://www.w3.org/2000/svg" xmlns:xlink="http://www.w3.org/1999/xlink"><g><g><polygon fill="#D7E9FF" points="36.28,16 27.73,16 25,16 16,25.01 27.13,25.01 39,25.01 48,16   "/></g><g><polygon fill="#94C1FF" points="39,25.01 39,36.87 39,48 48,39 48,36.27 48,27.72 48,16   "/></g><g><polygon fill="#FFFFFF" points="27.13,25.01 16,25.01 16,27.72 16,36.29 16,48 27.71,48 36.28,48 39,48 39,36.87 39,25.01   "/></g></g><g><g><g><g><path d="M38.998,49.005H16.002c-0.553,0-1-0.447-1-1V25.009c0-0.553,0.447-1,1-1h22.996c0.553,0,1,0.447,1,1      v22.996C39.998,48.558,39.551,49.005,38.998,49.005z M17.002,47.005h20.996V26.009H17.002V47.005z" fill="#116FFF"/></g><g><path d="M38.998,26.009c-0.256,0-0.512-0.098-0.707-0.292c-0.391-0.391-0.391-1.023-0.001-1.415l9.002-9.014      c0.391-0.391,1.024-0.39,1.415-0.001c0.391,0.391,0.391,1.023,0.001,1.415l-9.002,9.014      C39.511,25.911,39.254,26.009,38.998,26.009z" fill="#116FFF"/></g><g><path d="M15.998,26.009c-0.256,0-0.512-0.098-0.707-0.292c-0.391-0.391-0.391-1.023-0.001-1.415l9.002-9.014      c0.391-0.391,1.024-0.39,1.415-0.001c0.391,0.391,0.391,1.023,0.001,1.415l-9.002,9.014      C16.511,25.911,16.254,26.009,15.998,26.009z" fill="#116FFF"/></g><g><path d="M48,40.001c-0.553,0-1-0.447-1-1V15.995c0-0.553,0.447-1,1-1s1,0.447,1,1v23.006      C49,39.554,48.553,40.001,48,40.001z" fill="#116FFF"/></g><g><path d="M48,16.995H25c-0.553,0-1-0.447-1-1s0.447-1,1-1h23c0.553,0,1,0.447,1,1S48.553,16.995,48,16.995z" fill="#116FFF"/></g></g><g><path d="M38.998,49.005c-0.256,0-0.512-0.098-0.707-0.293c-0.391-0.391-0.391-1.023,0-1.414l9.004-9.004     c0.391-0.391,1.023-0.391,1.414,0s0.391,1.023,0,1.414l-9.004,9.004C39.51,48.907,39.254,49.005,38.998,49.005z" fill="#116FFF"/></g></g><g><path d="M36.282,16.995c-0.509,0-0.944-0.387-0.994-0.903c-1.059-10.86-2.805-13.893-3.333-14.099    c-0.552,0-0.978-0.444-0.978-0.996C30.978,0.444,31.447,0,32,0c0.922,0,3.729,0,5.278,15.898c0.054,0.55-0.349,1.038-0.898,1.092    C36.348,16.993,36.314,16.995,36.282,16.995z" fill="#116FFF"/></g><g><path d="M32,64c-5.932,0-6-30.693-6-32c0-12.173,1.113-23.025,2.904-28.32c0.177-0.523,0.744-0.805,1.268-0.627    c0.523,0.177,0.804,0.744,0.627,1.268C29.099,9.347,28,20.211,28,32c0,18.93,2.593,29.44,4.045,30.007    c0.438-0.206,2.185-3.237,3.243-14.098c0.053-0.549,0.558-0.952,1.092-0.898c0.55,0.054,0.952,0.542,0.898,1.092    C35.729,64,32.922,64,32,64z" fill="#116FFF"/></g><g><path d="M32,38c-1.307,0-32-0.068-32-6c0-0.923,0-3.73,15.903-5.278c0.565-0.052,1.039,0.349,1.092,0.898    c0.054,0.55-0.349,1.038-0.898,1.092C5.232,29.77,2.199,31.517,1.993,32.045C2.56,33.407,13.07,36,32,36    c11.792,0,22.656-1.099,27.68-2.799c0.521-0.177,1.09,0.104,1.268,0.627c0.177,0.522-0.104,1.091-0.627,1.268    C55.028,36.887,44.177,38,32,38z" fill="#116FFF"/></g><g><path d="M63,33c-0.553,0-1-0.447-1-1c-0.199-0.483-3.233-2.23-14.098-3.288c-0.55-0.054-0.952-0.542-0.898-1.092    c0.053-0.55,0.531-0.951,1.092-0.898C64,28.27,64,31.077,64,32C64,32.553,63.553,33,63,33z" fill="#116FFF"/></g><g><path d="M57.999,38c-0.198,0-0.398-0.059-0.573-0.182c-0.452-0.316-0.562-0.94-0.244-1.393l2-2.853    c0.316-0.451,0.94-0.563,1.393-0.244c0.452,0.316,0.562,0.94,0.244,1.393l-2,2.853C58.624,37.852,58.314,38,57.999,38z" fill="#116FFF"/></g><g><path d="M60,35.147c-0.119,0-0.239-0.021-0.357-0.066l-3-1.147c-0.516-0.197-0.773-0.775-0.576-1.291    c0.197-0.517,0.773-0.773,1.291-0.576l3,1.147c0.516,0.197,0.773,0.775,0.576,1.291C60.781,34.903,60.402,35.147,60,35.147z" fill="#116FFF"/></g><g><path d="M27.001,7c-0.315,0-0.625-0.148-0.819-0.426c-0.317-0.452-0.208-1.076,0.244-1.393l2.853-2    c0.453-0.319,1.076-0.207,1.393,0.244c0.317,0.452,0.208,1.076-0.244,1.393l-2.853,2C27.399,6.941,27.199,7,27.001,7z" fill="#116FFF"/></g><g><path d="M31,8c-0.402,0-0.781-0.244-0.934-0.643l-1.147-3c-0.197-0.516,0.061-1.094,0.576-1.291    c0.514-0.195,1.094,0.06,1.291,0.576l1.147,3c0.197,0.516-0.061,1.094-0.576,1.291C31.24,7.979,31.119,8,31,8z" fill="#116FFF"/></g></g></svg>