<?xml version="1.0" ?><svg id="Icon_Set" style="enable-background:new 0 0 64 64;" version="1.1" viewBox="0 0 64 64" xml:space="preserve" xmlns="http://www.w3.org/2000/svg" xmlns:xlink="http://www.w3.org/1999/xlink"><style type="text/css">
	.st0{fill:#263238;}
	.st1{fill:#FFD740;}
	.st2{fill:#FF5252;}
	.st3{fill:#40C4FF;}
	.st4{fill:#FFFFFF;}
	.st5{fill:#4DB6AC;}
	.st6{fill:#4FC3F7;}
</style><g><g><path class="st0" d="M53.158,51h-3.482c-1.843,0-3.554-0.916-4.576-2.449l-0.805-1.207C42.064,43.998,38.332,42,34.31,42h-4.62    c-4.021,0-7.754,1.998-9.985,5.344L18.9,48.551C17.878,50.084,16.167,51,14.324,51h-3.482c-1.609,0-3.132-0.701-4.178-1.923    c-1.046-1.223-1.504-2.836-1.256-4.426l2.777-17.772l0,0C8.989,21.734,13.352,18,18.559,18h26.883    c5.207,0,9.57,3.734,10.374,8.879l2.777,17.772c0.248,1.59-0.209,3.203-1.256,4.426C56.29,50.299,54.767,51,53.158,51z M29.69,41    h4.62c4.356,0,8.4,2.164,10.817,5.789l0.805,1.207C46.768,49.251,48.167,50,49.676,50h3.482c1.316,0,2.562-0.574,3.418-1.574    c0.856-1,1.23-2.32,1.027-3.621l-2.777-17.772C54.1,22.378,50.152,19,45.441,19H18.559c-4.711,0-8.658,3.378-9.386,8.033    L6.396,44.805c-0.203,1.301,0.171,2.621,1.027,3.621c0.856,1,2.102,1.574,3.418,1.574h3.482c1.508,0,2.908-0.749,3.744-2.004    l0.805-1.207C21.29,43.164,25.333,41,29.69,41z"/></g><g><path class="st0" d="M20.401,35.5h-2c-0.827,0-1.5-0.673-1.5-1.5v-2.5h-2.5c-0.827,0-1.5-0.673-1.5-1.5v-2    c0-0.827,0.673-1.5,1.5-1.5h2.5V24c0-0.827,0.673-1.5,1.5-1.5h2c0.827,0,1.5,0.673,1.5,1.5v2.5h2.5c0.827,0,1.5,0.673,1.5,1.5v2    c0,0.827-0.673,1.5-1.5,1.5h-2.5V34C21.901,34.827,21.228,35.5,20.401,35.5z M14.401,27.5c-0.276,0-0.5,0.224-0.5,0.5v2    c0,0.276,0.224,0.5,0.5,0.5h3.5V34c0,0.276,0.224,0.5,0.5,0.5h2c0.276,0,0.5-0.224,0.5-0.5v-3.5h3.5c0.276,0,0.5-0.224,0.5-0.5v-2    c0-0.276-0.224-0.5-0.5-0.5h-3.5V24c0-0.276-0.224-0.5-0.5-0.5h-2c-0.276,0-0.5,0.224-0.5,0.5v3.5H14.401z"/></g><g><circle class="st1" cx="44.901" cy="24.5" r="2"/><path class="st0" d="M44.901,27c-1.378,0-2.5-1.122-2.5-2.5s1.122-2.5,2.5-2.5s2.5,1.122,2.5,2.5S46.279,27,44.901,27z M44.901,23    c-0.827,0-1.5,0.673-1.5,1.5s0.673,1.5,1.5,1.5s1.5-0.673,1.5-1.5S45.728,23,44.901,23z"/></g><g><circle class="st1" cx="44.901" cy="33.5" r="2"/><path class="st0" d="M44.901,36c-1.378,0-2.5-1.122-2.5-2.5s1.122-2.5,2.5-2.5s2.5,1.122,2.5,2.5S46.279,36,44.901,36z M44.901,32    c-0.827,0-1.5,0.673-1.5,1.5s0.673,1.5,1.5,1.5s1.5-0.673,1.5-1.5S45.728,32,44.901,32z"/></g><g><circle class="st1" cx="49.401" cy="29" r="2"/><path class="st0" d="M49.401,31.5c-1.378,0-2.5-1.122-2.5-2.5s1.122-2.5,2.5-2.5s2.5,1.122,2.5,2.5S50.779,31.5,49.401,31.5z     M49.401,27.5c-0.827,0-1.5,0.673-1.5,1.5s0.673,1.5,1.5,1.5s1.5-0.673,1.5-1.5S50.228,27.5,49.401,27.5z"/></g><g><circle class="st1" cx="40.401" cy="29" r="2"/><path class="st0" d="M40.401,31.5c-1.378,0-2.5-1.122-2.5-2.5s1.122-2.5,2.5-2.5s2.5,1.122,2.5,2.5S41.779,31.5,40.401,31.5z     M40.401,27.5c-0.827,0-1.5,0.673-1.5,1.5s0.673,1.5,1.5,1.5s1.5-0.673,1.5-1.5S41.228,27.5,40.401,27.5z"/></g><g><path class="st2" d="M34,37.5h-4c-0.552,0-1-0.448-1-1v-1c0-0.552,0.448-1,1-1h4c0.552,0,1,0.448,1,1v1    C35,37.052,34.552,37.5,34,37.5z"/><path class="st0" d="M34,38h-4c-0.827,0-1.5-0.673-1.5-1.5v-1c0-0.827,0.673-1.5,1.5-1.5h4c0.827,0,1.5,0.673,1.5,1.5v1    C35.5,37.327,34.827,38,34,38z M30,35c-0.276,0-0.5,0.224-0.5,0.5v1c0,0.276,0.224,0.5,0.5,0.5h4c0.276,0,0.5-0.224,0.5-0.5v-1    c0-0.276-0.224-0.5-0.5-0.5H30z"/></g><g><path class="st3" d="M27,18.5h-8v-2c0-0.552,0.448-1,1-1h6c0.552,0,1,0.448,1,1V18.5z"/><path class="st0" d="M27,19h-8c-0.276,0-0.5-0.224-0.5-0.5v-2c0-0.827,0.673-1.5,1.5-1.5h6c0.827,0,1.5,0.673,1.5,1.5v2    C27.5,18.776,27.276,19,27,19z M19.5,18h7v-1.5c0-0.276-0.224-0.5-0.5-0.5h-6c-0.276,0-0.5,0.224-0.5,0.5V18z"/></g><g><path class="st3" d="M45,18.5h-8v-2c0-0.552,0.448-1,1-1h6c0.552,0,1,0.448,1,1V18.5z"/><path class="st0" d="M45,19h-8c-0.276,0-0.5-0.224-0.5-0.5v-2c0-0.827,0.673-1.5,1.5-1.5h6c0.827,0,1.5,0.673,1.5,1.5v2    C45.5,18.776,45.276,19,45,19z M37.5,18h7v-1.5c0-0.276-0.224-0.5-0.5-0.5h-6c-0.276,0-0.5,0.224-0.5,0.5V18z"/></g><g><path class="st0" d="M55.5,8.5h-4C51.224,8.5,51,8.276,51,8s0.224-0.5,0.5-0.5h4C55.776,7.5,56,7.724,56,8S55.776,8.5,55.5,8.5z"/></g><g><path class="st0" d="M53.5,10.5c-0.276,0-0.5-0.224-0.5-0.5V6c0-0.276,0.224-0.5,0.5-0.5S54,5.724,54,6v4    C54,10.276,53.776,10.5,53.5,10.5z"/></g><g><path class="st0" d="M61,13.5h-4c-0.276,0-0.5-0.224-0.5-0.5s0.224-0.5,0.5-0.5h4c0.276,0,0.5,0.224,0.5,0.5S61.276,13.5,61,13.5z    "/></g><g><path class="st0" d="M59,15.5c-0.276,0-0.5-0.224-0.5-0.5v-4c0-0.276,0.224-0.5,0.5-0.5s0.5,0.224,0.5,0.5v4    C59.5,15.276,59.276,15.5,59,15.5z"/></g><g><path class="st0" d="M5,8.5H3C2.724,8.5,2.5,8.276,2.5,8S2.724,7.5,3,7.5h2c0.276,0,0.5,0.224,0.5,0.5S5.276,8.5,5,8.5z"/></g><g><path class="st0" d="M16.5,8.5H7C6.724,8.5,6.5,8.276,6.5,8S6.724,7.5,7,7.5h9.5C16.776,7.5,17,7.724,17,8S16.776,8.5,16.5,8.5z"/></g><g><path class="st0" d="M61,58.5h-2c-0.276,0-0.5-0.224-0.5-0.5s0.224-0.5,0.5-0.5h2c0.276,0,0.5,0.224,0.5,0.5S61.276,58.5,61,58.5z    "/></g><g><path class="st0" d="M57,58.5h-9.5c-0.276,0-0.5-0.224-0.5-0.5s0.224-0.5,0.5-0.5H57c0.276,0,0.5,0.224,0.5,0.5    S57.276,58.5,57,58.5z"/></g></g></svg>