<?xml version="1.0" ?><!DOCTYPE svg  PUBLIC '-//W3C//DTD SVG 1.1//EN'  'http://www.w3.org/Graphics/SVG/1.1/DTD/svg11.dtd'><svg enable-background="new 0 0 64 64" height="64px" id="icons" version="1.1" viewBox="0 0 64 64" width="64px" xml:space="preserve" xmlns="http://www.w3.org/2000/svg" xmlns:xlink="http://www.w3.org/1999/xlink"><g><g><g><g><path d="M57.5,11.02v19h-4v-19c0-1.109,0.9-2,2-2S57.5,9.91,57.5,11.02z" fill="#5C9EFF"/></g></g></g><g><g><g><path d="M53.5,30.02h4h2c1.66,0,3,1.341,3,3V35h-14v-1.98c0-1.659,1.34-3,3-3H53.5z" fill="#94C1FF"/></g></g></g><g><g><g><rect fill="#D7E9FF" height="8.03" width="14" x="48.5" y="35"/></g></g></g><g><g><g><path d="M48.5,43.03h14v2c0,0.55-0.45,1-1,1h-3h-3h-3h-3c-0.55,0-1-0.45-1-1V43.03z" fill="#FFFFFF"/></g></g></g><g><g><g><polygon fill="#D7E9FF" points="4.51,60 41.5,60 41.5,60.04 41.5,63 1.5,63 1.5,4 4.47,4 4.51,4     "/></g></g></g><g><g><g><polygon fill="#FFFFFF" points="44.5,7 38.5,7 38.5,1     "/></g></g></g><g><g><g><polygon fill="#D7E9FF" points="44.5,7 44.5,60 41.5,60 4.51,60 4.51,4 4.51,1 38.5,1 38.5,7     "/></g></g></g></g><g><g><g><g><path d="M44.5,60.998H4.504c-0.553,0-1-0.447-1-1V1c0-0.552,0.447-1,1-1H38.5c0.266,0,0.52,0.105,0.707,0.293      l6,6C45.395,6.481,45.5,6.735,45.5,7v52.998C45.5,60.551,45.053,60.998,44.5,60.998z M5.504,58.998H43.5V7.415L38.086,2H5.504      V58.998z" fill="#116FFF"/></g></g></g><g><g><g><path d="M41.498,64H1.502c-0.553,0-1-0.447-1-1V4.002c0-0.552,0.447-1,1-1h2.965c0.553,0,1,0.448,1,1      s-0.447,1-1,1H2.502V62h37.996v-1.965c0-0.553,0.447-1,1-1s1,0.447,1,1V63C42.498,63.553,42.051,64,41.498,64z" fill="#116FFF"/></g></g></g><g><g><g><path d="M38.5,8c-0.553,0-1-0.448-1-1V1c0-0.552,0.447-1,1-1s1,0.448,1,1v6C39.5,7.553,39.053,8,38.5,8z" fill="#116FFF"/></g></g></g><g><g><g><path d="M44.5,8h-6c-0.553,0-1-0.448-1-1s0.447-1,1-1h6c0.553,0,1,0.448,1,1S45.053,8,44.5,8z" fill="#116FFF"/></g></g></g><g><g><g><g><g><path d="M13.502,20c-0.553,0-1-0.448-1-1c0-2.757,2.243-5,5-5c0.553,0,1,0.448,1,1s-0.447,1-1,1        c-1.654,0-3,1.346-3,3C14.502,19.552,14.055,20,13.502,20z" fill="#116FFF"/></g></g></g><g><g><g><path d="M17.502,36.004c-2.757,0-5-2.243-5-5.001c0-0.552,0.447-1,1-1s1,0.448,1,1        c0,1.655,1.346,3.001,3,3.001c0.553,0,1,0.447,1,1S18.055,36.004,17.502,36.004z" fill="#116FFF"/></g></g></g><g><g><g><path d="M13.502,28c-0.553,0-1-0.448-1-1c0-0.551-0.448-1-1-1c-0.553,0-1-0.448-1-1s0.447-1,1-1        c1.654,0,3,1.346,3,3C14.502,27.553,14.055,28,13.502,28z" fill="#116FFF"/></g></g></g><g><g><g><path d="M11.502,26c-0.553,0-1-0.448-1-1s0.447-1,1-1c0.552,0,1-0.449,1-1c0-0.552,0.447-1,1-1s1,0.448,1,1        C14.502,24.655,13.156,26,11.502,26z" fill="#116FFF"/></g></g></g><g><g><g><path d="M13.502,24c-0.553,0-1-0.448-1-1V19c0-0.552,0.447-1,1-1s1,0.448,1,1V23        C14.502,23.553,14.055,24,13.502,24z" fill="#116FFF"/></g></g></g><g><g><g><path d="M13.502,32.002c-0.553,0-1-0.448-1-1V27c0-0.552,0.447-1,1-1s1,0.448,1,1v4.002        C14.502,31.555,14.055,32.002,13.502,32.002z" fill="#116FFF"/></g></g></g></g><g><g><g><g><path d="M35.502,20c-0.553,0-1-0.448-1-1c0-1.654-1.346-3-3-3c-0.553,0-1-0.448-1-1s0.447-1,1-1        c2.757,0,5,2.243,5,5C36.502,19.552,36.055,20,35.502,20z" fill="#116FFF"/></g></g></g><g><g><g><path d="M31.502,36.004c-0.553,0-1-0.447-1-1s0.447-1,1-1c1.654,0,3-1.347,3-3.001c0-0.552,0.447-1,1-1        s1,0.448,1,1C36.502,33.761,34.259,36.004,31.502,36.004z" fill="#116FFF"/></g></g></g><g><g><g><path d="M35.502,28c-0.553,0-1-0.448-1-1c0-1.654,1.346-3,3-3c0.553,0,1,0.448,1,1s-0.447,1-1,1        c-0.552,0-1,0.449-1,1C36.502,27.553,36.055,28,35.502,28z" fill="#116FFF"/></g></g></g><g><g><g><path d="M37.502,26c-1.654,0-3-1.346-3-3c0-0.552,0.447-1,1-1s1,0.448,1,1c0,0.551,0.448,1,1,1        c0.553,0,1,0.448,1,1S38.055,26,37.502,26z" fill="#116FFF"/></g></g></g><g><g><g><path d="M35.502,24c-0.553,0-1-0.448-1-1V19c0-0.552,0.447-1,1-1s1,0.448,1,1V23        C36.502,23.553,36.055,24,35.502,24z" fill="#116FFF"/></g></g></g><g><g><g><path d="M35.502,32.002c-0.553,0-1-0.448-1-1V27c0-0.552,0.447-1,1-1s1,0.448,1,1v4.002        C36.502,31.555,36.055,32.002,35.502,32.002z" fill="#116FFF"/></g></g></g></g><g><g><g><path d="M20.528,26c-0.553,0-1.005-0.448-1.005-1s0.442-1,0.994-1h0.011c0.552,0,1,0.448,1,1       S21.08,26,20.528,26z" fill="#116FFF"/></g></g></g><g><g><g><path d="M24.532,26c-0.553,0-1.005-0.448-1.005-1s0.442-1,0.994-1h0.011c0.552,0,1,0.448,1,1       S25.084,26,24.532,26z" fill="#116FFF"/></g></g></g><g><g><g><path d="M28.534,26c-0.553,0-1.005-0.448-1.005-1s0.442-1,0.994-1h0.011c0.552,0,1,0.448,1,1       S29.086,26,28.534,26z" fill="#116FFF"/></g></g></g></g><g><g><g><path d="M19.5,45.004c-0.553,0-1-0.447-1-1c0-0.552-0.447-1-0.998-1c-0.552,0-1,0.448-1,1c0,0.553-0.447,1-1,1      s-1-0.447-1-1c0-1.654,1.346-3,3-3c1.653,0,2.998,1.346,2.998,3C20.5,44.557,20.053,45.004,19.5,45.004z" fill="#116FFF"/></g></g></g><g><g><g><path d="M17.502,51.004c-1.654,0-3-1.346-3-3c0-0.553,0.447-1,1-1s1,0.447,1,1c0,0.552,0.448,1,1,1s1-0.448,1-1      c0-0.553,0.447-1,1-1s1,0.447,1,1C20.502,49.658,19.156,51.004,17.502,51.004z" fill="#116FFF"/></g></g></g><g><g><g><path d="M15.502,49.004c-0.553,0-1-0.447-1-1v-4c0-0.553,0.447-1,1-1s1,0.447,1,1v4      C16.502,48.557,16.055,49.004,15.502,49.004z" fill="#116FFF"/></g></g></g><g><g><g><path d="M33.5,45.004c-0.553,0-1-0.447-1-1c0-0.552-0.447-1-0.998-1c-0.552,0-1,0.448-1,1c0,0.553-0.447,1-1,1      s-1-0.447-1-1c0-1.654,1.346-3,3-3c1.653,0,2.998,1.346,2.998,3C34.5,44.557,34.053,45.004,33.5,45.004z" fill="#116FFF"/></g></g></g><g><g><g><path d="M31.496,51.004c-1.654,0-3-1.346-3-3c0-0.553,0.447-1,1-1s1,0.447,1,1c0,0.552,0.448,1,1,1s1-0.448,1-1      c0-0.553,0.447-1,1-1s1,0.447,1,1C34.496,49.658,33.15,51.004,31.496,51.004z" fill="#116FFF"/></g></g></g><g><g><g><path d="M33.496,49.004c-0.553,0-1-0.447-1-1c0-0.354-0.599-0.683-1.444-1.105      c-1.076-0.539-2.55-1.277-2.55-2.895c0-0.553,0.447-1,1-1s1,0.447,1,1c0,0.354,0.599,0.683,1.444,1.105      c1.076,0.539,2.55,1.277,2.55,2.895C34.496,48.557,34.049,49.004,33.496,49.004z" fill="#116FFF"/></g></g></g><g><g><g><path d="M26.493,45.004c-0.553,0-1-0.447-1-1c0-0.552-0.447-1-0.998-1c-0.552,0-1,0.448-1,1c0,0.553-0.447,1-1,1      s-1-0.447-1-1c0-1.654,1.346-3,3-3c1.653,0,2.998,1.346,2.998,3C27.493,44.557,27.046,45.004,26.493,45.004z" fill="#116FFF"/></g></g></g><g><g><g><path d="M24.489,51.004c-1.654,0-3-1.346-3-3c0-0.553,0.447-1,1-1s1,0.447,1,1c0,0.552,0.448,1,1,1s1-0.448,1-1      c0-0.553,0.447-1,1-1s1,0.447,1,1C27.489,49.658,26.144,51.004,24.489,51.004z" fill="#116FFF"/></g></g></g><g><g><g><path d="M26.489,49.004c-0.553,0-1-0.447-1-1c0-0.354-0.599-0.683-1.444-1.105      c-1.076-0.539-2.55-1.277-2.55-2.895c0-0.553,0.447-1,1-1s1,0.447,1,1c0,0.354,0.599,0.683,1.444,1.105      c1.076,0.539,2.55,1.277,2.55,2.895C27.489,48.557,27.042,49.004,26.489,49.004z" fill="#116FFF"/></g></g></g><g><g><g><g><path d="M49.496,47.025c-1.103,0-2-0.897-2-2c0-0.553,0.447-1,1-1s1,0.447,1,1v0.002c0.553,0,1,0.446,1,0.999       C50.496,46.578,50.049,47.025,49.496,47.025z" fill="#116FFF"/></g></g></g><g><g><g><path d="M61.498,47.025c-0.553,0-1-0.447-1-1s0.447-1,1-1c0-0.553,0.447-1,1-1s1,0.447,1,1       C63.498,46.128,62.601,47.025,61.498,47.025z" fill="#116FFF"/></g></g></g><g><g><g><path d="M61.498,47.025H49.496c-0.553,0-1-0.447-1-1s0.447-1,1-1h12.002c0.553,0,1,0.447,1,1       S62.051,47.025,61.498,47.025z" fill="#116FFF"/></g></g></g><g><g><g><path d="M62.498,46.025c-0.553,0-1-0.447-1-1V33.02c0-0.552,0.447-1,1-1s1,0.448,1,1v12.006       C63.498,45.578,63.051,46.025,62.498,46.025z" fill="#116FFF"/></g></g></g><g><g><g><path d="M48.496,46.025c-0.553,0-1-0.447-1-1V33.02c0-0.552,0.447-1,1-1s1,0.448,1,1v12.006       C49.496,45.578,49.049,46.025,48.496,46.025z" fill="#116FFF"/></g></g></g><g><g><g><path d="M48.496,34.02c-0.553,0-1-0.447-1-1c0-2.207,1.795-4.002,4.002-4.002c0.553,0,1,0.448,1,1s-0.447,1-1,1       c-1.104,0-2.002,0.898-2.002,2.002C49.496,33.572,49.049,34.02,48.496,34.02z" fill="#116FFF"/></g></g></g><g><g><g><path d="M62.498,34.02c-0.553,0-1-0.447-1-1c0-1.103-0.897-2-2-2c-0.553,0-1-0.448-1-1s0.447-1,1-1       c2.206,0,4,1.794,4,4C63.498,33.572,63.051,34.02,62.498,34.02z" fill="#116FFF"/></g></g></g><g><g><g><path d="M59.498,31.017h-8c-0.553,0-1-0.448-1-1s0.447-1,1-1h8c0.553,0,1,0.448,1,1       S60.051,31.017,59.498,31.017z" fill="#116FFF"/></g></g></g><g><g><g><path d="M62.498,36.004H48.496c-0.553,0-1-0.447-1-1s0.447-1,1-1h14.002c0.553,0,1,0.447,1,1       S63.051,36.004,62.498,36.004z" fill="#116FFF"/></g></g></g><g><g><g><path d="M53.498,31.016c-0.553,0-1-0.448-1-1V11.017c0-0.552,0.447-1,1-1s1,0.448,1,1v18.999       C54.498,30.568,54.051,31.016,53.498,31.016z" fill="#116FFF"/></g></g></g><g><g><g><path d="M57.498,31.016c-0.553,0-1-0.448-1-1V11.017c0-0.552,0.447-1,1-1s1,0.448,1,1v18.999       C58.498,30.568,58.051,31.016,57.498,31.016z" fill="#116FFF"/></g></g></g><g><g><g><path d="M57.498,12.016c-0.553,0-1-0.448-1-1c0-0.551-0.448-1-1-1s-1,0.449-1,1c0,0.552-0.447,1-1,1       s-1-0.448-1-1c0-1.654,1.346-3,3-3s3,1.346,3,3C58.498,11.568,58.051,12.016,57.498,12.016z" fill="#116FFF"/></g></g></g><g><g><g><path d="M62.498,44.025H48.496c-0.553,0-1-0.447-1-1s0.447-1,1-1h14.002c0.553,0,1,0.447,1,1       S63.051,44.025,62.498,44.025z" fill="#116FFF"/></g></g></g><g><g><g><path d="M61.5,52.023c-0.553,0-1-0.447-1-1v-4.998c0-0.553,0.447-1,1-1s1,0.447,1,1v4.998       C62.5,51.576,62.053,52.023,61.5,52.023z" fill="#116FFF"/></g></g></g><g><g><g><path d="M58.5,50.021c-0.553,0-1-0.447-1-1v-2.996c0-0.553,0.447-1,1-1s1,0.447,1,1v2.996       C59.5,49.574,59.053,50.021,58.5,50.021z" fill="#116FFF"/></g></g></g><g><g><g><path d="M55.5,56.027c-0.553,0-1-0.447-1-1v-9.002c0-0.553,0.447-1,1-1s1,0.447,1,1v9.002       C56.5,55.58,56.053,56.027,55.5,56.027z" fill="#116FFF"/></g></g></g><g><g><g><path d="M52.5,49.02c-0.553,0-1-0.447-1-1v-1.994c0-0.553,0.447-1,1-1s1,0.447,1,1v1.994       C53.5,48.572,53.053,49.02,52.5,49.02z" fill="#116FFF"/></g></g></g><g><g><g><path d="M49.5,52.023c-0.553,0-1-0.447-1-1v-4.998c0-0.553,0.447-1,1-1s1,0.447,1,1v4.998       C50.5,51.576,50.053,52.023,49.5,52.023z" fill="#116FFF"/></g></g></g></g></g></svg>