<?xml version="1.0" ?><svg id="Icon_Set" style="enable-background:new 0 0 64 64;" version="1.1" viewBox="0 0 64 64" xml:space="preserve" xmlns="http://www.w3.org/2000/svg" xmlns:xlink="http://www.w3.org/1999/xlink"><style type="text/css">
	.st0{fill:#263238;}
	.st1{fill:#FFD740;}
	.st2{fill:#4FC3F7;}
	.st3{fill:#40C4FF;}
	.st4{fill:#FF5252;}
	.st5{fill:#FFFFFF;}
	.st6{fill:#212A41;}
	.st7{fill:#37474F;}
	.st8{fill:#4DB6AC;}
</style><g><g><path class="st4" d="M38,11.5H26c-0.552,0-1-0.448-1-1v-6c0-0.552,0.448-1,1-1h12c0.552,0,1,0.448,1,1v6    C39,11.052,38.552,11.5,38,11.5z"/><path class="st0" d="M38,12H26c-0.827,0-1.5-0.673-1.5-1.5v-6C24.5,3.673,25.173,3,26,3h12c0.827,0,1.5,0.673,1.5,1.5v6    C39.5,11.327,38.827,12,38,12z M26,4c-0.276,0-0.5,0.224-0.5,0.5v6c0,0.276,0.224,0.5,0.5,0.5h12c0.276,0,0.5-0.224,0.5-0.5v-6    C38.5,4.224,38.276,4,38,4H26z"/></g><g><polyline class="st1" points="36,13.5 36,23.5 28,23.5 28,13.5   "/><path class="st0" d="M36,24h-8c-0.276,0-0.5-0.224-0.5-0.5v-10c0-0.276,0.224-0.5,0.5-0.5s0.5,0.224,0.5,0.5V23h7v-9.5    c0-0.276,0.224-0.5,0.5-0.5s0.5,0.224,0.5,0.5v10C36.5,23.776,36.276,24,36,24z"/></g><g><path class="st0" d="M32,30c-0.128,0-0.256-0.049-0.354-0.146l-3-3C28.553,26.76,28.5,26.633,28.5,26.5v-3    c0-0.276,0.224-0.5,0.5-0.5h6c0.276,0,0.5,0.224,0.5,0.5v3c0,0.133-0.053,0.26-0.146,0.354l-3,3C32.256,29.951,32.128,30,32,30z     M29.5,26.293l2.5,2.5l2.5-2.5V24h-5V26.293z M35,26.5h0.01H35z"/></g><g><path class="st0" d="M32,24c-0.276,0-0.5-0.224-0.5-0.5v-10c0-0.276,0.224-0.5,0.5-0.5s0.5,0.224,0.5,0.5v10    C32.5,23.776,32.276,24,32,24z"/></g><g><path class="st0" d="M32,33c-0.276,0-0.5-0.224-0.5-0.5v-3c0-0.276,0.224-0.5,0.5-0.5s0.5,0.224,0.5,0.5v3    C32.5,32.776,32.276,33,32,33z"/></g><g><path class="st0" d="M39,8h-7c-0.276,0-0.5-0.224-0.5-0.5S31.724,7,32,7h7c0.276,0,0.5,0.224,0.5,0.5S39.276,8,39,8z"/></g><g><path class="st0" d="M55.5,10H41c-0.276,0-0.5-0.224-0.5-0.5S40.724,9,41,9h14.5C55.776,9,56,8.776,56,8.5v-2    C56,6.224,55.776,6,55.5,6H41c-0.276,0-0.5-0.224-0.5-0.5S40.724,5,41,5h14.5C56.327,5,57,5.673,57,6.5v2    C57,9.327,56.327,10,55.5,10z"/></g><g><path class="st0" d="M23,10H8.5C7.673,10,7,9.327,7,8.5v-2C7,5.673,7.673,5,8.5,5H23c0.276,0,0.5,0.224,0.5,0.5S23.276,6,23,6H8.5    C8.224,6,8,6.224,8,6.5v2C8,8.776,8.224,9,8.5,9H23c0.276,0,0.5,0.224,0.5,0.5S23.276,10,23,10z"/></g><g><path class="st0" d="M60,61H4c-0.827,0-1.5-0.673-1.5-1.5v-2C2.5,56.673,3.173,56,4,56h56c0.827,0,1.5,0.673,1.5,1.5v2    C61.5,60.327,60.827,61,60,61z M4,57c-0.276,0-0.5,0.224-0.5,0.5v2C3.5,59.776,3.724,60,4,60h56c0.276,0,0.5-0.224,0.5-0.5v-2    c0-0.276-0.224-0.5-0.5-0.5H4z"/></g><g><path class="st3" d="M32,32.5H15c-0.552,0-1,0.448-1,1v22c0,0.552,0.448,1,1,1h34c0.552,0,1-0.448,1-1v-22c0-0.552-0.448-1-1-1H35    "/><path class="st0" d="M49,57H15c-0.827,0-1.5-0.673-1.5-1.5v-22c0-0.827,0.673-1.5,1.5-1.5h17c0.276,0,0.5,0.224,0.5,0.5    S32.276,33,32,33H15c-0.276,0-0.5,0.224-0.5,0.5v22c0,0.276,0.224,0.5,0.5,0.5h34c0.276,0,0.5-0.224,0.5-0.5v-22    c0-0.276-0.224-0.5-0.5-0.5H35c-0.276,0-0.5-0.224-0.5-0.5S34.724,32,35,32h14c0.827,0,1.5,0.673,1.5,1.5v22    C50.5,56.327,49.827,57,49,57z"/></g><g><path class="st5" d="M47,52.75c0,0.414-0.373,0.75-0.833,0.75H17.833c-0.46,0-0.833-0.336-0.833-0.75v-16.5    c0-0.414,0.373-0.75,0.833-0.75H46c0.552,0,1,0.448,1,1V52.75z"/><path class="st0" d="M46.167,54H17.833c-0.735,0-1.333-0.561-1.333-1.25v-16.5c0-0.689,0.598-1.25,1.333-1.25H46    c0.827,0,1.5,0.673,1.5,1.5v16.25C47.5,53.439,46.902,54,46.167,54z M17.833,36c-0.181,0-0.333,0.114-0.333,0.25v16.5    c0,0.136,0.153,0.25,0.333,0.25h28.333c0.181,0,0.333-0.114,0.333-0.25V36.5c0-0.276-0.224-0.5-0.5-0.5H17.833z"/></g><g><path class="st0" d="M24.5,54c-0.276,0-0.5-0.224-0.5-0.5v-18c0-0.276,0.224-0.5,0.5-0.5s0.5,0.224,0.5,0.5v18    C25,53.776,24.777,54,24.5,54z"/></g><g><path class="st0" d="M32,54c-0.276,0-0.5-0.224-0.5-0.5v-18c0-0.276,0.224-0.5,0.5-0.5s0.5,0.224,0.5,0.5v18    C32.5,53.776,32.276,54,32,54z"/></g><g><path class="st0" d="M39.5,54c-0.276,0-0.5-0.224-0.5-0.5v-18c0-0.276,0.224-0.5,0.5-0.5s0.5,0.224,0.5,0.5v18    C40,53.776,39.777,54,39.5,54z"/></g><g><path class="st0" d="M47,45H17c-0.276,0-0.5-0.224-0.5-0.5S16.724,44,17,44h30c0.276,0,0.5,0.224,0.5,0.5S47.276,45,47,45z"/></g><g><path class="st0" d="M6,19.5H5c-0.276,0-0.5-0.224-0.5-0.5s0.224-0.5,0.5-0.5h1c0.276,0,0.5,0.224,0.5,0.5S6.276,19.5,6,19.5z"/></g><g><path class="st0" d="M19,19.5H8c-0.276,0-0.5-0.224-0.5-0.5s0.224-0.5,0.5-0.5h11c0.276,0,0.5,0.224,0.5,0.5S19.276,19.5,19,19.5z    "/></g><g><path class="st0" d="M59,19.5h-1c-0.276,0-0.5-0.224-0.5-0.5s0.224-0.5,0.5-0.5h1c0.276,0,0.5,0.224,0.5,0.5S59.276,19.5,59,19.5z    "/></g><g><path class="st0" d="M56,19.5H45c-0.276,0-0.5-0.224-0.5-0.5s0.224-0.5,0.5-0.5h11c0.276,0,0.5,0.224,0.5,0.5S56.276,19.5,56,19.5    z"/></g><g><path class="st0" d="M10,32.5c-0.215,0-0.406-0.138-0.474-0.342L8.973,30.5c-0.231-0.691-0.782-1.242-1.473-1.473l-1.658-0.553    C5.638,28.406,5.5,28.215,5.5,28s0.138-0.406,0.342-0.474L7.5,26.973c0.691-0.231,1.242-0.782,1.473-1.473l0.553-1.658    c0.136-0.408,0.812-0.408,0.948,0l0.553,1.658c0.231,0.691,0.782,1.242,1.473,1.473l1.658,0.553    C14.362,27.594,14.5,27.785,14.5,28s-0.138,0.406-0.342,0.474L12.5,29.027c-0.691,0.231-1.242,0.782-1.473,1.473l-0.553,1.658    C10.406,32.362,10.215,32.5,10,32.5z M7.581,28l0.235,0.079c0.988,0.33,1.775,1.117,2.105,2.105L10,30.419l0.079-0.235    c0.33-0.988,1.117-1.775,2.105-2.105L12.419,28l-0.235-0.079c-0.988-0.33-1.775-1.117-2.105-2.105L10,25.581l-0.079,0.235    c-0.33,0.988-1.117,1.775-2.105,2.105L7.581,28z"/></g></g></svg>