<?xml version="1.0" encoding="utf-8"?>
<!-- Generator: Adobe Illustrator 16.0.0, SVG Export Plug-In . SVG Version: 6.00 Build 0)  -->
<!DOCTYPE svg PUBLIC "-//W3C//DTD SVG 1.1//EN" "http://www.w3.org/Graphics/SVG/1.1/DTD/svg11.dtd">
<svg version="1.1" id="Calque_1" xmlns="http://www.w3.org/2000/svg" xmlns:xlink="http://www.w3.org/1999/xlink" x="0px" y="0px"
	 width="590px" height="77.543px" viewBox="0 0 590 77.543" enable-background="new 0 0 590 77.543" xml:space="preserve">
<g>
	<path fill="#2D3260" d="M0,1.305h16.138v74.923H0V1.305z"/>
	<path fill="#2D3260" d="M94.866,61.729v14.5H41.43V1.305h16.138v60.421L94.866,61.729L94.866,61.729z"/>
	<path fill="#2D3260" d="M113.169,38.716C113.169,17.664,131.491,0,152.976,0c21.71,0,39.81,17.664,39.81,38.716
		c0,21.056-18.1,38.828-39.81,38.828C131.491,77.534,113.169,59.768,113.169,38.716z M176.312,38.716
		c0-12.981-10.688-24.105-23.336-24.105c-12.539,0-23.223,11.124-23.223,24.105c0,13.083,10.684,24.208,23.223,24.208
		C165.625,62.922,176.312,51.799,176.312,38.716z"/>
	<path fill="#2D3260" d="M234.97,15.813h-23.336V1.305h62.815v14.508h-23.347v60.416H234.97V15.813z"/>
	<path fill="#2D3260" d="M289.493,38.716C289.493,17.664,307.812,0,329.289,0c21.705,0,39.807,17.664,39.807,38.716
		c0,21.056-18.102,38.828-39.807,38.828C307.812,77.534,289.493,59.768,289.493,38.716z M352.627,38.716
		c0-12.981-10.687-24.105-23.329-24.105c-12.545,0-23.229,11.124-23.229,24.105c0,13.083,10.688,24.208,23.229,24.208
		C341.939,62.922,352.627,51.799,352.627,38.716z"/>
	<path fill="#2D3260" d="M391.867,1.305h33.7c16.248,0,28.238,10.474,28.238,25.307c0,14.822-11.99,25.297-28.238,25.297H407.91
		v24.319h-16.039L391.867,1.305L391.867,1.305z M423.826,37.189c7.956,0,13.415-4.145,13.415-10.575
		c0-6.441-5.462-10.577-13.415-10.577h-15.918v21.152H423.826z"/>
	<path fill="#2D3260" d="M474.951,1.305h16.138v74.923h-16.138V1.305z"/>
	<path fill="#2D3260" d="M567.107,64.452H533.72l-4.791,11.774h-17.986l30.535-74.92h17.986L590,76.229h-18.1L567.107,64.452z
		 M561.535,50.816l-11.117-27.368l-11.123,27.368H561.535z"/>
</g>
</svg>
