<svg xmlns="http://www.w3.org/2000/svg" viewBox="0 0 128 128"><defs><style>.Graphic-Style-6{fill:#d6e1ea;}.cls-1{fill:#fff;}.Graphic-Style-3{fill:#a6caff;}.Graphic-Style-2{fill:none;stroke:#2a457f;stroke-linecap:round;stroke-linejoin:round;stroke-width:4px;}</style></defs><title>lightbulb</title><g id="circles"><circle class="Graphic-Style-6" cx="64" cy="64" r="54"/></g><g id="icons"><path class="cls-1" d="M64,10A34,34,0,0,0,31,43.985C31,68.992,49,76.995,49,94H79c0-17.005,18-25.008,18-50.015A34,34,0,0,0,64,10Z"/><rect class="Graphic-Style-3" x="46" y="94" width="36" height="8" rx="4" ry="4"/><path class="cls-1" d="M49,102H79a0,0,0,0,1,0,0v6a4,4,0,0,1-4,4H53a4,4,0,0,1-4-4v-6A0,0,0,0,1,49,102Z"/><path class="cls-1" d="M59,112H69a0,0,0,0,1,0,0v4a2,2,0,0,1-2,2H61a2,2,0,0,1-2-2v-4A0,0,0,0,1,59,112Z"/><path class="Graphic-Style-2" d="M34.13,60.78A44.936,44.936,0,0,1,31,43.98,34,34,0,0,1,64,10,33.987,33.987,0,0,1,91.75,25.83"/><path class="Graphic-Style-2" d="M96.24,36.83A33.683,33.683,0,0,1,97,43.98C97,68.99,79,76.99,79,94H49c0-9.54-5.66-16.25-10.64-24.71"/><path class="Graphic-Style-2" d="M44.14,36.95A21.76,21.76,0,0,1,56.62,23.62"/><path class="Graphic-Style-2" d="M65,102H78a4,4,0,0,0,0-8H50a4,4,0,0,0,0,8h5"/><path class="Graphic-Style-2" d="M79,102v6a4,4,0,0,1-4,4H53a4,4,0,0,1-4-4v-6"/><path class="Graphic-Style-2" d="M59,112H69a0,0,0,0,1,0,0v4a2,2,0,0,1-2,2H61a2,2,0,0,1-2-2v-4A0,0,0,0,1,59,112Z"/><line class="Graphic-Style-2" x1="64" y1="94" x2="57" y2="77"/><line class="Graphic-Style-2" x1="64" y1="94" x2="71" y2="77"/></g></svg>