<?xml version="1.0" encoding="UTF-8" standalone="no"?>
<!DOCTYPE svg PUBLIC "-//W3C//DTD SVG 1.1//EN" "http://www.w3.org/Graphics/SVG/1.1/DTD/svg11.dtd">
<svg width="100%" height="100%" viewBox="0 0 590 78" version="1.1" xmlns="http://www.w3.org/2000/svg" xmlns:xlink="http://www.w3.org/1999/xlink" xml:space="preserve" xmlns:serif="http://www.serif.com/" style="fill-rule:evenodd;clip-rule:evenodd;stroke-linejoin:round;stroke-miterlimit:2;">
    <g>
        <rect x="0" y="1.305" width="16.138" height="74.923" style="fill:white;fill-rule:nonzero;"/>
        <path d="M94.866,61.729L94.866,76.229L41.43,76.229L41.43,1.305L57.568,1.305L57.568,61.726L94.866,61.729Z" style="fill:white;fill-rule:nonzero;"/>
        <path d="M113.169,38.716C113.169,17.664 131.491,0 152.976,0C174.686,0 192.786,17.664 192.786,38.716C192.786,59.772 174.686,77.544 152.976,77.544C131.491,77.534 113.169,59.768 113.169,38.716ZM176.312,38.716C176.312,25.735 165.624,14.611 152.976,14.611C140.437,14.611 129.753,25.735 129.753,38.716C129.753,51.799 140.437,62.924 152.976,62.924C165.625,62.922 176.312,51.799 176.312,38.716Z" style="fill:white;fill-rule:nonzero;"/>
        <path d="M234.97,15.813L211.634,15.813L211.634,1.305L274.449,1.305L274.449,15.813L251.102,15.813L251.102,76.229L234.97,76.229L234.97,15.813Z" style="fill:white;fill-rule:nonzero;"/>
        <path d="M289.493,38.716C289.493,17.664 307.812,0 329.289,0C350.994,0 369.096,17.664 369.096,38.716C369.096,59.772 350.994,77.544 329.289,77.544C307.812,77.534 289.493,59.768 289.493,38.716ZM352.627,38.716C352.627,25.735 341.94,14.611 329.298,14.611C316.753,14.611 306.069,25.735 306.069,38.716C306.069,51.799 316.757,62.924 329.298,62.924C341.939,62.922 352.627,51.799 352.627,38.716Z" style="fill:white;fill-rule:nonzero;"/>
        <path d="M391.867,1.305L425.567,1.305C441.815,1.305 453.805,11.779 453.805,26.612C453.805,41.434 441.815,51.909 425.567,51.909L407.91,51.909L407.91,76.228L391.871,76.228L391.867,1.305ZM423.826,37.189C431.782,37.189 437.241,33.044 437.241,26.614C437.241,20.173 431.779,16.037 423.826,16.037L407.908,16.037L407.908,37.189L423.826,37.189Z" style="fill:white;fill-rule:nonzero;"/>
        <rect x="474.951" y="1.305" width="16.138" height="74.923" style="fill:white;fill-rule:nonzero;"/>
        <path d="M567.107,64.452L533.72,64.452L528.929,76.226L510.943,76.226L541.478,1.306L559.464,1.306L590,76.229L571.9,76.229L567.107,64.452ZM561.535,50.816L550.418,23.448L539.295,50.816L561.535,50.816Z" style="fill:white;fill-rule:nonzero;"/>
    </g>
</svg>
