<svg xmlns="http://www.w3.org/2000/svg" viewBox="0 0 128 128"><defs><style>.Graphic-Style-6{fill:#d6e1ea;}.Graphic-Style-3{fill:#a6caff;}.Graphic-Style-5{fill:#fff;}.cls-1{fill:none;stroke:#2a457f;stroke-linecap:round;stroke-linejoin:round;stroke-width:4px;}</style></defs><title>time-is-money</title><g id="circles"><circle class="Graphic-Style-6" cx="64" cy="64" r="54"/></g><g id="icons"><circle class="Graphic-Style-3" cx="64" cy="64" r="48"/><circle class="Graphic-Style-5" cx="64" cy="64" r="38"/><path class="cls-1" d="M54,17.04A48.465,48.465,0,0,1,64,16a47.959,47.959,0,0,1,39.82,21.18"/><path class="cls-1" d="M44,20.35a48.015,48.015,0,0,0-3.09,85.74"/><path class="cls-1" d="M108.07,44.93A48.024,48.024,0,0,1,49.3,109.7"/><path class="cls-1" d="M27.95,76.05A38.012,38.012,0,0,1,96.58,44.42a37.483,37.483,0,0,1,3.71,8.29A38.041,38.041,0,0,1,83,96.92"/><path class="cls-1" d="M73,100.93A38.029,38.029,0,0,1,31.8,84.2"/><line class="cls-1" x1="64" y1="34" x2="64" y2="36"/><line class="cls-1" x1="64" y1="94" x2="64" y2="92"/><line class="cls-1" x1="85.213" y1="42.787" x2="83.799" y2="44.201"/><line class="cls-1" x1="42.787" y1="85.213" x2="44.201" y2="83.799"/><line class="cls-1" x1="94" y1="64" x2="92" y2="64"/><line class="cls-1" x1="34" y1="64" x2="36" y2="64"/><line class="cls-1" x1="85.213" y1="85.213" x2="83.799" y2="83.799"/><line class="cls-1" x1="42.787" y1="42.787" x2="44.201" y2="44.201"/><path class="cls-1" d="M57,70a6.852,6.852,0,0,0,7,6c5,0,7-3.429,7-6s-2-4.768-7-6-7-3.429-7-6,2-6,7-6a6.852,6.852,0,0,1,7,6"/><line class="cls-1" x1="64" y1="48" x2="64" y2="80"/></g></svg>