<svg xmlns="http://www.w3.org/2000/svg" viewBox="0 0 128 128"><defs><style>.cls-1{fill:#d6e1ea;}.Graphic-Style-5{fill:#fff;}.Graphic-Style-3{fill:#a6caff;}.cls-2{fill:none;stroke:#2a457f;stroke-linecap:round;stroke-linejoin:round;stroke-width:4px;}</style></defs><title>sent-mail</title><g id="circles"><circle class="cls-1" cx="64" cy="64" r="54"/></g><g id="icons"><polygon class="Graphic-Style-5" points="112 16 90.36 67.94 72 112 56 72 16 56 60.06 37.64 112 16"/><polygon class="Graphic-Style-3" points="112 16 60.06 37.64 90.88 37.12 90.36 67.94 112 16"/><polyline class="cls-2" points="102 40 94.35 58.35 90.36 67.94 72 112 63.57 90.93"/><polyline class="cls-2" points="60.14 82.36 56 72 16 56 37.88 46.88"/><polyline class="cls-2" points="105.53 31.53 112 16 60.06 37.64 46.35 43.35"/><line class="cls-2" x1="76" y1="52" x2="56" y2="72"/><polyline class="cls-2" points="82 46 90.88 37.12 95 33 111.5 16.5"/><polyline class="cls-2" points="60.06 37.64 90.88 37.12 90.36 67.94"/><line class="cls-2" x1="37" y1="91" x2="25" y2="103"/><line class="cls-2" x1="19" y1="109" x2="16" y2="112"/><line class="cls-2" x1="20" y1="88" x2="31" y2="77"/><line class="cls-2" x1="40" y1="108" x2="51" y2="97"/></g></svg>